                                                                        S      1
,,8Hbrace v1,8Hbrace v1,7Hunknown,7Hunknown,32,38,7,99,15,,1.,2,2HMM,1, G      1
0.08,15H20170311.094222,0.01,10000.,7Hunknown,7Hunknown,11,0,;          G      2
     186       1                                                00000000D      1
     186            -187       1       0                               0D      2
     514       2                                                00010000D      3
     514                       2       1                               0D      4
     510       4                                                00010000D      5
     510            -187       1       1                               0D      6
     510       5                                                00010000D      7
     510            -187       1       1                               0D      8
     510       6                                                00010000D      9
     510            -187       1       1                               0D     10
     510       7                                                00010000D     11
     510            -187       1       1                               0D     12
     510       8                                                00010000D     13
     510            -187       1       1                               0D     14
     510       9                                                00010000D     15
     510            -187       1       1                               0D     16
     510      10                                                00010000D     17
     510            -187       1       1                               0D     18
     510      11                                                00010000D     19
     510            -187       1       1                               0D     20
     510      12                                                00010000D     21
     510            -187       1       1                               0D     22
     510      13                                                00010000D     23
     510            -187       1       1                               0D     24
     510      14                                                00010000D     25
     510            -187       1       1                               0D     26
     510      15                                                00010000D     27
     510            -187       1       1                               0D     28
     510      16                                                00010000D     29
     510            -187       1       1                               0D     30
     510      17                                                00010000D     31
     510            -187       1       1                               0D     32
     508      18                                                00010000D     33
     508                       1       1                               0D     34
     508      19                                                00010000D     35
     508                       1       1                               0D     36
     508      20                                                00010000D     37
     508                       1       1                               0D     38
     508      21                                                00010000D     39
     508                       1       1                               0D     40
     508      22                                                00010000D     41
     508                       1       1                               0D     42
     508      23                                                00010000D     43
     508                       1       1                               0D     44
     508      24                                                00010000D     45
     508                       1       1                               0D     46
     508      25                                                00010000D     47
     508                       1       1                               0D     48
     508      26                                                00010000D     49
     508                       1       1                               0D     50
     508      27                                                00010000D     51
     508                       1       1                               0D     52
     508      28                                                00010000D     53
     508                       1       1                               0D     54
     508      29                                                00010000D     55
     508                       1       1                               0D     56
     508      30                                                00010000D     57
     508                       1       1                               0D     58
     508      31                                                00010000D     59
     508                       1       1                               0D     60
     508      32                                                00010000D     61
     508                       1       1                               0D     62
     508      33                                                00010000D     63
     508                       1       1                               0D     64
     508      34                                                00010000D     65
     508                       1       1                               0D     66
     508      35                                                00010000D     67
     508                       1       1                               0D     68
     508      36                                                00010000D     69
     508                       1       1                               0D     70
     508      37                                                00010000D     71
     508                       1       1                               0D     72
     508      38                                                00010000D     73
     508                       1       1                               0D     74
     508      39                                                00010000D     75
     508                       1       1                               0D     76
     508      40                                                00010000D     77
     508                       1       1                               0D     78
     508      41                                                00010000D     79
     508                       1       1                               0D     80
     126      42                                                00010000D     81
     126       0              12       0                               0D     82
     126      54                                                00010000D     83
     126       0               3       0                               0D     84
     126      57                                                00010000D     85
     126       0              12       0                               0D     86
     126      69                                                00010000D     87
     126       0              13       0                               0D     88
     126      82                                                00010000D     89
     126       0               4       0                               0D     90
     126      86                                                00010000D     91
     126       0              13       0                               0D     92
     126      99                                                00010000D     93
     126       0              12       0                               0D     94
     126     111                                                00010000D     95
     126       0               3       0                               0D     96
     126     114                                                00010000D     97
     126       0              12       0                               0D     98
     126     126                                                00010000D     99
     126       0              13       0                               0D    100
     126     139                                                00010000D    101
     126       0               4       0                               0D    102
     126     143                                                00010000D    103
     126       0              13       0                               0D    104
     126     156                                                00010000D    105
     126       0               2       0                               0D    106
     126     158                                                00010000D    107
     126       0               2       0                               0D    108
     126     160                                                00010000D    109
     126       0               2       0                               0D    110
     126     162                                                00010000D    111
     126       0               2       0                               0D    112
     126     164                                                00010000D    113
     126       0               2       0                               0D    114
     126     166                                                00010000D    115
     126       0               2       0                               0D    116
     126     168                                                00010000D    117
     126       0               2       0                               0D    118
     126     170                                                00010000D    119
     126       0               2       0                               0D    120
     126     172                                                00010000D    121
     126       0               2       0                               0D    122
     126     174                                                00010000D    123
     126       0               2       0                               0D    124
     126     176                                                00010000D    125
     126       0               2       0                               0D    126
     126     178                                                00010000D    127
     126       0               2       0                               0D    128
     126     180                                                00010000D    129
     126       0               2       0                               0D    130
     126     182                                                00010000D    131
     126       0               2       0                               0D    132
     126     184                                                00010000D    133
     126       0               2       0                               0D    134
     126     186                                                00010000D    135
     126       0               2       0                               0D    136
     126     188                                                00010000D    137
     126       0               2       0                               0D    138
     126     190                                                00010000D    139
     126       0               2       0                               0D    140
     126     192                                                00010000D    141
     126       0               2       0                               0D    142
     126     194                                                00010000D    143
     126       0               2       0                               0D    144
     126     196                                                00010000D    145
     126       0               2       0                               0D    146
     126     198                                                00010000D    147
     126       0               2       0                               0D    148
     126     200                                                00010000D    149
     126       0               2       0                               0D    150
     126     202                                                00010000D    151
     126       0               2       0                               0D    152
     128     204                                                00010000D    153
     128       0    -187      20       0                               0D    154
     128     224                                                00010000D    155
     128       0    -187      22       0                               0D    156
     128     246                                                00010000D    157
     128       0    -187      20       0                               0D    158
     128     266                                                00010000D    159
     128       0    -187      22       0                               0D    160
     128     288                                                00010000D    161
     128       0    -187       4       0                               0D    162
     128     292                                                00010000D    163
     128       0    -187       4       0                               0D    164
     128     296                                                00010000D    165
     128       0    -187       3       0                               0D    166
     128     299                                                00010000D    167
     128       0    -187       3       0                               0D    168
     128     302                                                00010000D    169
     128       0    -187       3       0                               0D    170
     128     305                                                00010000D    171
     128       0    -187       4       0                               0D    172
     128     309                                                00010000D    173
     128       0    -187       4       0                               0D    174
     128     313                                                00010000D    175
     128       0    -187       4       0                               0D    176
     128     317                                                00010000D    177
     128       0    -187       3       0                               0D    178
     128     320                                                00010000D    179
     128       0    -187       3       0                               0D    180
     502     323                                                00010000D    181
     502                      11       1                               0D    182
     504     334                                                00010001D    183
     504                      10       1                               0D    184
     406     344                                                00000000D    185
     406                       1      15                               0D    186
     314     345                                                00000200D    187
     314                       2       0                               0D    188
186,3,1,0,0,1,185;                                                     1P      1
514,14,5,1,7,1,9,1,11,1,13,1,15,1,17,1,19,1,21,1,23,1,25,1,27,1,       3P      2
29,1,31,1;                                                             3P      3
510,153,1,1,33;                                                        5P      4
510,155,1,1,35;                                                        7P      5
510,157,1,1,37;                                                        9P      6
510,159,1,1,39;                                                       11P      7
510,161,3,1,41,43,45;                                                 13P      8
510,163,1,1,47;                                                       15P      9
510,165,3,1,49,51,53;                                                 17P     10
510,167,1,1,55;                                                       19P     11
510,169,1,1,57;                                                       21P     12
510,171,3,1,59,61,63;                                                 23P     13
510,173,1,1,65;                                                       25P     14
510,175,3,1,67,69,71;                                                 27P     15
510,177,2,1,73,75;                                                    29P     16
510,179,2,1,77,79;                                                    31P     17
508,4,0,183,1,0,0,0,183,2,1,0,0,183,3,0,0,0,183,2,0,0;                33P     18
508,4,0,183,4,0,0,0,183,5,1,0,0,183,6,0,0,0,183,5,0,0;                35P     19
508,4,0,183,7,0,0,0,183,8,1,0,0,183,9,0,0,0,183,8,0,0;                37P     20
508,4,0,183,10,0,0,0,183,11,1,0,0,183,12,0,0,0,183,11,0,0;            39P     21
508,4,0,183,13,1,0,0,183,14,1,0,0,183,15,0,0,0,183,16,0,0;            41P     22
508,1,0,183,4,1,0;                                                    43P     23
508,1,0,183,10,1,0;                                                   45P     24
508,4,0,183,17,1,0,0,183,16,1,0,0,183,18,0,0,0,183,19,0,0;            47P     25
508,4,0,183,20,1,0,0,183,19,1,0,0,183,21,0,0,0,183,22,0,0;            49P     26
508,1,0,183,3,1,0;                                                    51P     27
508,1,0,183,9,1,0;                                                    53P     28
508,4,0,183,23,1,0,0,183,22,1,0,0,183,24,0,0,0,183,14,0,0;            55P     29
508,4,0,183,25,0,0,0,183,26,1,0,0,183,27,0,0,0,183,28,0,0;            57P     30
508,4,0,183,29,0,0,0,183,28,1,0,0,183,30,0,0,0,183,31,0,0;            59P     31
508,1,0,183,1,1,0;                                                    61P     32
508,1,0,183,7,1,0;                                                    63P     33
508,4,0,183,32,0,0,0,183,31,1,0,0,183,33,0,0,0,183,34,0,0;            65P     34
508,4,0,183,35,0,0,0,183,34,1,0,0,183,36,0,0,0,183,26,0,0;            67P     35
508,1,0,183,6,1,0;                                                    69P     36
508,1,0,183,12,1,0;                                                   71P     37
508,4,0,183,36,1,0,0,183,33,1,0,0,183,30,1,0,0,183,27,1,0;            73P     38
508,4,0,183,24,1,0,0,183,21,1,0,0,183,18,1,0,0,183,15,1,0;            75P     39
508,4,0,183,35,1,0,0,183,25,1,0,0,183,29,1,0,0,183,32,1,0;            77P     40
508,4,0,183,23,0,0,0,183,13,0,0,0,183,17,0,0,0,183,20,0,0;            79P     41
126,8,2,0,1,0,0,-3.14159265358979,-3.14159265358979,                  81P     42
-3.14159265358979,-1.5707963267949,-1.5707963267949,0.,0.,            81P     43
1.5707963267949,1.5707963267949,3.14159265358979,                     81P     44
3.14159265358979,3.14159265358979,1.,0.707106781186548,1.,            81P     45
0.707106781186548,1.,0.707106781186548,1.,0.707106781186548,1.,       81P     46
-3.00000004470348,30.0000004470348,11.75,-3.00000004470348,           81P     47
33.0000004917383,11.75,1.83697022609402D-16,33.0000004917383,         81P     48
11.75,3.00000004470348,33.0000004917383,11.75,3.00000004470348,       81P     49
30.0000004470348,11.75,3.00000004470348,27.0000004023314,11.75,       81P     50
1.83697022609402D-16,27.0000004023314,11.75,-3.00000004470348,        81P     51
27.0000004023314,11.75,-3.00000004470348,30.0000004470348,11.75,      81P     52
-3.14159265358979,3.14159265358979,0.,0.,0.;                          81P     53
126,1,1,0,0,1,0,0.,0.,0.499999992549418,0.499999992549418,1.,1.,      83P     54
-3.00000004470348,30.0000004470348,11.75,-3.00000004470348,           83P     55
30.0000004470348,10.25,0.,0.499999992549418,0.,0.,0.;                 83P     56
126,8,2,0,1,0,0,-3.14159265358979,-3.14159265358979,                  85P     57
-3.14159265358979,-1.5707963267949,-1.5707963267949,0.,0.,            85P     58
1.5707963267949,1.5707963267949,3.14159265358979,                     85P     59
3.14159265358979,3.14159265358979,1.,0.707106781186548,1.,            85P     60
0.707106781186548,1.,0.707106781186548,1.,0.707106781186548,1.,       85P     61
-3.00000004470348,30.0000004470348,10.25,-3.00000004470348,           85P     62
27.0000004023314,10.25,1.83697022609402D-16,27.0000004023314,         85P     63
10.25,3.00000004470348,27.0000004023314,10.25,3.00000004470348,       85P     64
30.0000004470348,10.25,3.00000004470348,33.0000004917383,10.25,       85P     65
1.83697022609402D-16,33.0000004917383,10.25,-3.00000004470348,        85P     66
33.0000004917383,10.25,-3.00000004470348,30.0000004470348,10.25,      85P     67
-3.14159265358979,3.14159265358979,0.,0.,0.;                          85P     68
126,8,2,0,1,0,0,-3.14159265358979,-3.14159265358979,                  87P     69
-3.14159265358979,-1.5707963267949,-1.5707963267949,0.,0.,            87P     70
1.5707963267949,1.5707963267949,3.14159265358979,                     87P     71
3.14159265358979,3.14159265358979,1.,0.707106781186548,1.,            87P     72
0.707106781186548,1.,0.707106781186548,1.,0.707106781186548,1.,       87P     73
-3.00000004470348,30.0000004470348,-10.25,-3.00000004470348,          87P     74
33.0000004917383,-10.25,1.83697022609402D-16,33.0000004917383,        87P     75
-10.25,3.00000004470348,33.0000004917383,-10.25,                      87P     76
3.00000004470348,30.0000004470348,-10.25,3.00000004470348,            87P     77
27.0000004023314,-10.25,1.83697022609402D-16,27.0000004023314,        87P     78
-10.25,-3.00000004470348,27.0000004023314,-10.25,                     87P     79
-3.00000004470348,30.0000004470348,-10.25,-3.14159265358979,          87P     80
3.14159265358979,0.,0.,0.;                                            87P     81
126,1,1,0,0,1,0,7.33333322405815,7.33333322405815,                    89P     82
7.83333321660757,7.83333321660757,1.,1.,-3.00000004470348,            89P     83
30.0000004470348,-10.25,-3.00000004470348,30.0000004470348,           89P     84
-11.75,7.33333322405815,7.83333321660757,0.,0.,0.;                    89P     85
126,8,2,0,1,0,0,-3.14159265358979,-3.14159265358979,                  91P     86
-3.14159265358979,-1.5707963267949,-1.5707963267949,0.,0.,            91P     87
1.5707963267949,1.5707963267949,3.14159265358979,                     91P     88
3.14159265358979,3.14159265358979,1.,0.707106781186548,1.,            91P     89
0.707106781186548,1.,0.707106781186548,1.,0.707106781186548,1.,       91P     90
-3.00000004470348,30.0000004470348,-11.75,-3.00000004470348,          91P     91
27.0000004023314,-11.75,1.83697022609402D-16,27.0000004023314,        91P     92
-11.75,3.00000004470348,27.0000004023314,-11.75,                      91P     93
3.00000004470348,30.0000004470348,-11.75,3.00000004470348,            91P     94
33.0000004917383,-11.75,1.83697022609402D-16,33.0000004917383,        91P     95
-11.75,-3.00000004470348,33.0000004917383,-11.75,                     91P     96
-3.00000004470348,30.0000004470348,-11.75,-3.14159265358979,          91P     97
3.14159265358979,0.,0.,0.;                                            91P     98
126,8,2,0,1,0,0,-3.14159265358979,-3.14159265358979,                  93P     99
-3.14159265358979,-1.5707963267949,-1.5707963267949,0.,0.,            93P    100
1.5707963267949,1.5707963267949,3.14159265358979,                     93P    101
3.14159265358979,3.14159265358979,1.,0.707106781186548,1.,            93P    102
0.707106781186548,1.,0.707106781186548,1.,0.707106781186548,1.,       93P    103
-3.00000004470348,10.0000001490116,11.75,-3.00000004470348,           93P    104
13.0000001937151,11.75,1.83697022609402D-16,13.0000001937151,         93P    105
11.75,3.00000004470348,13.0000001937151,11.75,3.00000004470348,       93P    106
10.0000001490116,11.75,3.00000004470348,7.00000010430813,11.75,       93P    107
1.83697022609402D-16,7.00000010430813,11.75,-3.00000004470348,        93P    108
7.00000010430813,11.75,-3.00000004470348,10.0000001490116,11.75,      93P    109
-3.14159265358979,3.14159265358979,0.,0.,0.;                          93P    110
126,1,1,0,0,1,0,0.,0.,0.499999992549418,0.499999992549418,1.,1.,      95P    111
-3.00000004470348,10.0000001490116,11.75,-3.00000004470348,           95P    112
10.0000001490116,10.25,0.,0.499999992549418,0.,0.,0.;                 95P    113
126,8,2,0,1,0,0,-3.14159265358979,-3.14159265358979,                  97P    114
-3.14159265358979,-1.5707963267949,-1.5707963267949,0.,0.,            97P    115
1.5707963267949,1.5707963267949,3.14159265358979,                     97P    116
3.14159265358979,3.14159265358979,1.,0.707106781186548,1.,            97P    117
0.707106781186548,1.,0.707106781186548,1.,0.707106781186548,1.,       97P    118
-3.00000004470348,10.0000001490116,10.25,-3.00000004470348,           97P    119
7.00000010430813,10.25,1.83697022609402D-16,7.00000010430813,         97P    120
10.25,3.00000004470348,7.00000010430813,10.25,3.00000004470348,       97P    121
10.0000001490116,10.25,3.00000004470348,13.0000001937151,10.25,       97P    122
1.83697022609402D-16,13.0000001937151,10.25,-3.00000004470348,        97P    123
13.0000001937151,10.25,-3.00000004470348,10.0000001490116,10.25,      97P    124
-3.14159265358979,3.14159265358979,0.,0.,0.;                          97P    125
126,8,2,0,1,0,0,-3.14159265358979,-3.14159265358979,                  99P    126
-3.14159265358979,-1.5707963267949,-1.5707963267949,0.,0.,            99P    127
1.5707963267949,1.5707963267949,3.14159265358979,                     99P    128
3.14159265358979,3.14159265358979,1.,0.707106781186548,1.,            99P    129
0.707106781186548,1.,0.707106781186548,1.,0.707106781186548,1.,       99P    130
-3.00000004470348,10.0000001490116,-10.25,-3.00000004470348,          99P    131
13.0000001937151,-10.25,1.83697022609402D-16,13.0000001937151,        99P    132
-10.25,3.00000004470348,13.0000001937151,-10.25,                      99P    133
3.00000004470348,10.0000001490116,-10.25,3.00000004470348,            99P    134
7.00000010430813,-10.25,1.83697022609402D-16,7.00000010430813,        99P    135
-10.25,-3.00000004470348,7.00000010430813,-10.25,                     99P    136
-3.00000004470348,10.0000001490116,-10.25,-3.14159265358979,          99P    137
3.14159265358979,0.,0.,0.;                                            99P    138
126,1,1,0,0,1,0,7.33333322405815,7.33333322405815,                   101P    139
7.83333321660757,7.83333321660757,1.,1.,-3.00000004470348,           101P    140
10.0000001490116,-10.25,-3.00000004470348,10.0000001490116,          101P    141
-11.75,7.33333322405815,7.83333321660757,0.,0.,0.;                   101P    142
126,8,2,0,1,0,0,-3.14159265358979,-3.14159265358979,                 103P    143
-3.14159265358979,-1.5707963267949,-1.5707963267949,0.,0.,           103P    144
1.5707963267949,1.5707963267949,3.14159265358979,                    103P    145
3.14159265358979,3.14159265358979,1.,0.707106781186548,1.,           103P    146
0.707106781186548,1.,0.707106781186548,1.,0.707106781186548,1.,      103P    147
-3.00000004470348,10.0000001490116,-11.75,-3.00000004470348,         103P    148
7.00000010430813,-11.75,1.83697022609402D-16,7.00000010430813,       103P    149
-11.75,3.00000004470348,7.00000010430813,-11.75,                     103P    150
3.00000004470348,10.0000001490116,-11.75,3.00000004470348,           103P    151
13.0000001937151,-11.75,1.83697022609402D-16,13.0000001937151,       103P    152
-11.75,-3.00000004470348,13.0000001937151,-11.75,                    103P    153
-3.00000004470348,10.0000001490116,-11.75,-3.14159265358979,         103P    154
3.14159265358979,0.,0.,0.;                                           103P    155
126,1,1,0,0,1,0,-2.05,-2.05,0.,0.,1.,1.,-10.25,0.,-10.25,10.25,      105P    156
0.,-10.25,-2.05,0.,0.,0.,0.;                                         105P    157
126,1,1,0,0,1,0,0.,0.,4.,4.,1.,1.,10.25,0.,-10.25,10.25,40.,         107P    158
-10.25,0.,4.,0.,0.,0.;                                               107P    159
126,1,1,0,0,1,0,-2.05,-2.05,0.,0.,1.,1.,-10.25,40.,-10.25,10.25,     109P    160
40.,-10.25,-2.05,0.,0.,0.,0.;                                        109P    161
126,1,1,0,0,1,0,0.,0.,4.,4.,1.,1.,-10.25,0.,-10.25,-10.25,40.,       111P    162
-10.25,0.,4.,0.,0.,0.;                                               111P    163
126,1,1,0,0,1,0,-2.05,-2.05,0.,0.,1.,1.,-10.25,0.,10.25,-10.25,      113P    164
0.,-10.25,-2.05,0.,0.,0.,0.;                                         113P    165
126,1,1,0,0,1,0,-2.05,-2.05,0.,0.,1.,1.,-10.25,40.,10.25,-10.25,     115P    166
40.,-10.25,-2.05,0.,0.,0.,0.;                                        115P    167
126,1,1,0,0,1,0,0.,0.,4.,4.,1.,1.,-10.25,0.,10.25,-10.25,40.,        117P    168
10.25,0.,4.,0.,0.,0.;                                                117P    169
126,1,1,0,0,1,0,-2.05,-2.05,0.,0.,1.,1.,10.25,0.,10.25,-10.25,       119P    170
0.,10.25,-2.05,0.,0.,0.,0.;                                          119P    171
126,1,1,0,0,1,0,-2.05,-2.05,0.,0.,1.,1.,10.25,40.,10.25,-10.25,      121P    172
40.,10.25,-2.05,0.,0.,0.,0.;                                         121P    173
126,1,1,0,0,1,0,0.,0.,4.,4.,1.,1.,10.25,0.,10.25,10.25,40.,          123P    174
10.25,0.,4.,0.,0.,0.;                                                123P    175
126,1,1,0,0,1,0,-2.05,-2.05,0.,0.,1.,1.,10.25,0.,-10.25,10.25,       125P    176
0.,10.25,-2.05,0.,0.,0.,0.;                                          125P    177
126,1,1,0,0,1,0,-2.05,-2.05,0.,0.,1.,1.,10.25,40.,-10.25,10.25,      127P    178
40.,10.25,-2.05,0.,0.,0.,0.;                                         127P    179
126,1,1,0,0,1,0,0.,0.,2.35,2.35,1.,1.,11.75,0.,-11.75,11.75,0.,      129P    180
11.75,0.,2.35,0.,0.,0.;                                              129P    181
126,1,1,0,0,1,0,0.,0.,4.,4.,1.,1.,11.75,0.,-11.75,11.75,40.,         131P    182
-11.75,0.,4.,0.,0.,0.;                                               131P    183
126,1,1,0,0,1,0,-2.35,-2.35,0.,0.,1.,1.,11.75,40.,11.75,11.75,       133P    184
40.,-11.75,-2.35,0.,0.,0.,0.;                                        133P    185
126,1,1,0,0,1,0,0.,0.,4.,4.,1.,1.,11.75,0.,11.75,11.75,40.,          135P    186
11.75,0.,4.,0.,0.,0.;                                                135P    187
126,1,1,0,0,1,0,0.,0.,2.35,2.35,1.,1.,11.75,0.,11.75,-11.75,0.,      137P    188
11.75,0.,2.35,0.,0.,0.;                                              137P    189
126,1,1,0,0,1,0,-2.35,-2.35,0.,0.,1.,1.,-11.75,40.,11.75,11.75,      139P    190
40.,11.75,-2.35,0.,0.,0.,0.;                                         139P    191
126,1,1,0,0,1,0,0.,0.,4.,4.,1.,1.,-11.75,0.,11.75,-11.75,40.,        141P    192
11.75,0.,4.,0.,0.,0.;                                                141P    193
126,1,1,0,0,1,0,0.,0.,2.35,2.35,1.,1.,-11.75,0.,11.75,-11.75,0.,     143P    194
-11.75,0.,2.35,0.,0.,0.;                                             143P    195
126,1,1,0,0,1,0,-2.35,-2.35,0.,0.,1.,1.,-11.75,40.,-11.75,           145P    196
-11.75,40.,11.75,-2.35,0.,0.,0.,0.;                                  145P    197
126,1,1,0,0,1,0,0.,0.,4.,4.,1.,1.,-11.75,0.,-11.75,-11.75,40.,       147P    198
-11.75,0.,4.,0.,0.,0.;                                               147P    199
126,1,1,0,0,1,0,0.,0.,2.35,2.35,1.,1.,-11.75,0.,-11.75,11.75,0.,     149P    200
-11.75,0.,2.35,0.,0.,0.;                                             149P    201
126,1,1,0,0,1,0,-2.35,-2.35,0.,0.,1.,1.,11.75,40.,-11.75,-11.75,     151P    202
40.,-11.75,-2.35,0.,0.,0.,0.;                                        151P    203
128,1,8,1,2,0,1,0,0,1,0.,0.,0.499999992549418,0.499999992549418,     153P    204
-3.14159265358979,-3.14159265358979,-3.14159265358979,               153P    205
-1.5707963267949,-1.5707963267949,0.,0.,1.5707963267949,             153P    206
1.5707963267949,3.14159265358979,3.14159265358979,                   153P    207
3.14159265358979,1.,1.,0.707106781186548,0.707106781186548,1.,       153P    208
1.,0.707106781186548,0.707106781186548,1.,1.,0.707106781186548,      153P    209
0.707106781186548,1.,1.,0.707106781186548,0.707106781186548,1.,      153P    210
1.,-3.00000004470348,30.0000004470348,11.75,-3.00000004470348,       153P    211
30.0000004470348,10.25,-3.00000004470348,33.0000004917383,11.75,     153P    212
-3.00000004470348,33.0000004917383,10.25,0.,33.0000004917383,        153P    213
11.75,0.,33.0000004917383,10.25,3.00000004470348,                    153P    214
33.0000004917383,11.75,3.00000004470348,33.0000004917383,10.25,      153P    215
3.00000004470348,30.0000004470348,11.75,3.00000004470348,            153P    216
30.0000004470348,10.25,3.00000004470348,27.0000004023314,11.75,      153P    217
3.00000004470348,27.0000004023314,10.25,0.,27.0000004023314,         153P    218
11.75,0.,27.0000004023314,10.25,-3.00000004470348,                   153P    219
27.0000004023314,11.75,-3.00000004470348,27.0000004023314,10.25,     153P    220
-3.00000004470348,30.0000004470348,11.75,-3.00000004470348,          153P    221
30.0000004470348,10.25,0.,0.499999992549418,-3.14159265358979,       153P    222
3.14159265358979;                                                    153P    223
128,1,8,1,2,0,1,0,0,1,7.33333322405815,7.33333322405815,             155P    224
7.83333321660757,7.83333321660757,-3.14159265358979,                 155P    225
-3.14159265358979,-3.14159265358979,-1.5707963267949,                155P    226
-1.5707963267949,0.,0.,1.5707963267949,1.5707963267949,              155P    227
3.14159265358979,3.14159265358979,3.14159265358979,1.,1.,            155P    228
0.707106781186548,0.707106781186548,1.,1.,0.707106781186548,         155P    229
0.707106781186548,1.,1.,0.707106781186548,0.707106781186548,1.,      155P    230
1.,0.707106781186548,0.707106781186548,1.,1.,-3.00000004470348,      155P    231
30.0000004470348,-10.25,-3.00000004470348,30.0000004470348,          155P    232
-11.75,-3.00000004470348,33.0000004917383,-10.25,                    155P    233
-3.00000004470348,33.0000004917383,-11.75,0.,33.0000004917383,       155P    234
-10.25,0.,33.0000004917383,-11.75,3.00000004470348,                  155P    235
33.0000004917383,-10.25,3.00000004470348,33.0000004917383,           155P    236
-11.75,3.00000004470348,30.0000004470348,-10.25,                     155P    237
3.00000004470348,30.0000004470348,-11.75,3.00000004470348,           155P    238
27.0000004023314,-10.25,3.00000004470348,27.0000004023314,           155P    239
-11.75,0.,27.0000004023314,-10.25,0.,27.0000004023314,-11.75,        155P    240
-3.00000004470348,27.0000004023314,-10.25,-3.00000004470348,         155P    241
27.0000004023314,-11.75,-3.00000004470348,30.0000004470348,          155P    242
-10.25,-3.00000004470348,30.0000004470348,-11.75,                    155P    243
7.33333322405815,7.83333321660757,-3.14159265358979,                 155P    244
3.14159265358979;                                                    155P    245
128,1,8,1,2,0,1,0,0,1,0.,0.,0.499999992549418,0.499999992549418,     157P    246
-3.14159265358979,-3.14159265358979,-3.14159265358979,               157P    247
-1.5707963267949,-1.5707963267949,0.,0.,1.5707963267949,             157P    248
1.5707963267949,3.14159265358979,3.14159265358979,                   157P    249
3.14159265358979,1.,1.,0.707106781186548,0.707106781186548,1.,       157P    250
1.,0.707106781186548,0.707106781186548,1.,1.,0.707106781186548,      157P    251
0.707106781186548,1.,1.,0.707106781186548,0.707106781186548,1.,      157P    252
1.,-3.00000004470348,10.0000001490116,11.75,-3.00000004470348,       157P    253
10.0000001490116,10.25,-3.00000004470348,13.0000001937151,11.75,     157P    254
-3.00000004470348,13.0000001937151,10.25,0.,13.0000001937151,        157P    255
11.75,0.,13.0000001937151,10.25,3.00000004470348,                    157P    256
13.0000001937151,11.75,3.00000004470348,13.0000001937151,10.25,      157P    257
3.00000004470348,10.0000001490116,11.75,3.00000004470348,            157P    258
10.0000001490116,10.25,3.00000004470348,7.00000010430813,11.75,      157P    259
3.00000004470348,7.00000010430813,10.25,0.,7.00000010430813,         157P    260
11.75,0.,7.00000010430813,10.25,-3.00000004470348,                   157P    261
7.00000010430813,11.75,-3.00000004470348,7.00000010430813,10.25,     157P    262
-3.00000004470348,10.0000001490116,11.75,-3.00000004470348,          157P    263
10.0000001490116,10.25,0.,0.499999992549418,-3.14159265358979,       157P    264
3.14159265358979;                                                    157P    265
128,1,8,1,2,0,1,0,0,1,7.33333322405815,7.33333322405815,             159P    266
7.83333321660757,7.83333321660757,-3.14159265358979,                 159P    267
-3.14159265358979,-3.14159265358979,-1.5707963267949,                159P    268
-1.5707963267949,0.,0.,1.5707963267949,1.5707963267949,              159P    269
3.14159265358979,3.14159265358979,3.14159265358979,1.,1.,            159P    270
0.707106781186548,0.707106781186548,1.,1.,0.707106781186548,         159P    271
0.707106781186548,1.,1.,0.707106781186548,0.707106781186548,1.,      159P    272
1.,0.707106781186548,0.707106781186548,1.,1.,-3.00000004470348,      159P    273
10.0000001490116,-10.25,-3.00000004470348,10.0000001490116,          159P    274
-11.75,-3.00000004470348,13.0000001937151,-10.25,                    159P    275
-3.00000004470348,13.0000001937151,-11.75,0.,13.0000001937151,       159P    276
-10.25,0.,13.0000001937151,-11.75,3.00000004470348,                  159P    277
13.0000001937151,-10.25,3.00000004470348,13.0000001937151,           159P    278
-11.75,3.00000004470348,10.0000001490116,-10.25,                     159P    279
3.00000004470348,10.0000001490116,-11.75,3.00000004470348,           159P    280
7.00000010430813,-10.25,3.00000004470348,7.00000010430813,           159P    281
-11.75,0.,7.00000010430813,-10.25,0.,7.00000010430813,-11.75,        159P    282
-3.00000004470348,7.00000010430813,-10.25,-3.00000004470348,         159P    283
7.00000010430813,-11.75,-3.00000004470348,10.0000001490116,          159P    284
-10.25,-3.00000004470348,10.0000001490116,-11.75,                    159P    285
7.33333322405815,7.83333321660757,-3.14159265358979,                 159P    286
3.14159265358979;                                                    159P    287
128,1,1,1,1,0,0,1,0,0,-0.001,-0.001,2.051,2.051,-0.001,-0.001,       161P    288
4.001,4.001,1.,1.,1.,1.,-10.26,-0.01,-10.25,10.26,-0.01,-10.25,      161P    289
-10.26,40.01,-10.25,10.26,40.01,-10.25,-0.001,2.051,-0.001,          161P    290
4.001;                                                               161P    291
128,1,1,1,1,0,0,1,0,0,-0.001,-0.001,2.051,2.051,-0.001,-0.001,       163P    292
4.001,4.001,1.,1.,1.,1.,-10.25,-0.01,10.26,-10.25,-0.01,-10.26,      163P    293
-10.25,40.01,10.26,-10.25,40.01,-10.26,-0.001,2.051,-0.001,          163P    294
4.001;                                                               163P    295
128,1,1,1,1,0,0,1,0,0,-0.001,-0.001,2.051,2.051,-0.001,-0.001,       165P    296
4.001,4.001,1.,1.,1.,1.,10.26,-0.01,10.25,-10.26,-0.01,10.25,        165P    297
10.26,40.01,10.25,-10.26,40.01,10.25,-0.001,2.051,-0.001,4.001;      165P    298
128,1,1,1,1,0,0,1,0,0,-0.001,-0.001,2.051,2.051,-0.001,-0.001,       167P    299
4.001,4.001,1.,1.,1.,1.,10.25,-0.01,-10.26,10.25,-0.01,10.26,        167P    300
10.25,40.01,-10.26,10.25,40.01,10.26,-0.001,2.051,-0.001,4.001;      167P    301
128,1,1,1,1,0,0,1,0,0,-0.001,-0.001,2.351,2.351,-0.001,-0.001,       169P    302
4.001,4.001,1.,1.,1.,1.,11.75,-0.01,11.76,11.75,-0.01,-11.76,        169P    303
11.75,40.01,11.76,11.75,40.01,-11.76,-0.001,2.351,-0.001,4.001;      169P    304
128,1,1,1,1,0,0,1,0,0,-0.00100000000000022,-0.00100000000000022,     171P    305
2.351,2.351,-0.001,-0.001,4.001,4.001,1.,1.,1.,1.,-11.76,-0.01,      171P    306
11.75,11.76,-0.01,11.75,-11.76,40.01,11.75,11.76,40.01,11.75,        171P    307
-0.00100000000000022,2.351,-0.001,4.001;                             171P    308
128,1,1,1,1,0,0,1,0,0,-0.001,-0.001,2.351,2.351,-0.001,-0.001,       173P    309
4.001,4.001,1.,1.,1.,1.,-11.75,-0.01,-11.76,-11.75,-0.01,11.76,      173P    310
-11.75,40.01,-11.76,-11.75,40.01,11.76,-0.001,2.351,-0.001,          173P    311
4.001;                                                               173P    312
128,1,1,1,1,0,0,1,0,0,-0.001,-0.001,2.351,2.351,-0.001,-0.001,       175P    313
4.001,4.001,1.,1.,1.,1.,11.76,-0.01,-11.75,-11.76,-0.01,-11.75,      175P    314
11.76,40.01,-11.75,-11.76,40.01,-11.75,-0.001,2.351,-0.001,          175P    315
4.001;                                                               175P    316
128,1,1,1,1,0,0,1,0,0,-1.176,-1.176,1.176,1.176,-1.176,-1.176,       177P    317
1.176,1.176,1.,1.,1.,1.,-11.76,40.,-11.76,-11.76,40.,11.76,          177P    318
11.76,40.,-11.76,11.76,40.,11.76,-1.176,1.176,-1.176,1.176;          177P    319
128,1,1,1,1,0,0,1,0,0,-1.176,-1.176,1.176,1.176,-1.176,-1.176,       179P    320
1.176,1.176,1.,1.,1.,1.,11.76,0.,11.76,-11.76,0.,11.76,11.76,0.,     179P    321
-11.76,-11.76,0.,-11.76,-1.176,1.176,-1.176,1.176;                   179P    322
502,24,-3.00000004470348,30.0000004470348,11.75,                     181P    323
-3.00000004470348,30.0000004470348,10.25,-3.00000004470348,          181P    324
30.0000004470348,-10.25,-3.00000004470348,30.0000004470348,          181P    325
-11.75,-3.00000004470348,10.0000001490116,11.75,                     181P    326
-3.00000004470348,10.0000001490116,10.25,-3.00000004470348,          181P    327
10.0000001490116,-10.25,-3.00000004470348,10.0000001490116,          181P    328
-11.75,-10.25,0.,-10.25,10.25,0.,-10.25,10.25,40.,-10.25,-10.25,     181P    329
40.,-10.25,-10.25,0.,10.25,-10.25,40.,10.25,10.25,0.,10.25,          181P    330
10.25,40.,10.25,11.75,0.,-11.75,11.75,0.,11.75,11.75,40.,-11.75,     181P    331
11.75,40.,11.75,-11.75,0.,11.75,-11.75,40.,11.75,-11.75,0.,          181P    332
-11.75,-11.75,40.,-11.75;                                            181P    333
504,36,81,181,1,181,1,83,181,1,181,2,85,181,2,181,2,87,181,3,        183P    334
181,3,89,181,3,181,4,91,181,4,181,4,93,181,5,181,5,95,181,5,181,     183P    335
6,97,181,6,181,6,99,181,7,181,7,101,181,7,181,8,103,181,8,181,8,     183P    336
105,181,9,181,10,107,181,10,181,11,109,181,12,181,11,111,181,9,      183P    337
181,12,113,181,13,181,9,115,181,14,181,12,117,181,13,181,14,119,     183P    338
181,15,181,13,121,181,16,181,14,123,181,15,181,16,125,181,10,        183P    339
181,15,127,181,11,181,16,129,181,17,181,18,131,181,17,181,19,        183P    340
133,181,20,181,19,135,181,18,181,20,137,181,18,181,21,139,181,       183P    341
22,181,20,141,181,21,181,22,143,181,21,181,23,145,181,24,181,22,     183P    342
147,181,23,181,24,149,181,23,181,17,151,181,19,181,24;               183P    343
406,1,5HBody1;                                                       185P    344
314,62.7450980392157,62.7450980392157,62.7450980392157,13HSteel      187P    345
- Satin;                                                             187P    346
S      1G      2D    188P    346                                        T      1
