                                                                        S      1
,,15HCenter Mount v1,15HCenter Mount v1,7Hunknown,7Hunknown,32,38,7,99, G      1
15,,1.,2,2HMM,1,0.08,15H20170311.094018,0.01,10000.,7Hunknown,7Hunknown,G      2
11,0,;                                                                  G      3
     186       1                                                00000000D      1
     186             -91       1       0                               0D      2
     514       2                                                00010000D      3
     514                       1       1                               0D      4
     510       3                                                00010000D      5
     510             -91       1       1                               0D      6
     510       4                                                00010000D      7
     510             -91       1       1                               0D      8
     510       5                                                00010000D      9
     510             -91       1       1                               0D     10
     510       6                                                00010000D     11
     510             -91       1       1                               0D     12
     510       7                                                00010000D     13
     510             -91       1       1                               0D     14
     510       8                                                00010000D     15
     510             -91       1       1                               0D     16
     510       9                                                00010000D     17
     510             -91       1       1                               0D     18
     510      10                                                00010000D     19
     510             -91       1       1                               0D     20
     508      11                                                00010000D     21
     508                       1       1                               0D     22
     508      12                                                00010000D     23
     508                       1       1                               0D     24
     508      13                                                00010000D     25
     508                       1       1                               0D     26
     508      14                                                00010000D     27
     508                       1       1                               0D     28
     508      15                                                00010000D     29
     508                       1       1                               0D     30
     508      16                                                00010000D     31
     508                       1       1                               0D     32
     508      17                                                00010000D     33
     508                       1       1                               0D     34
     508      18                                                00010000D     35
     508                       1       1                               0D     36
     508      19                                                00010000D     37
     508                       1       1                               0D     38
     126      20                                                00010000D     39
     126       0              12       0                               0D     40
     126      32                                                00010000D     41
     126       0               3       0                               0D     42
     126      35                                                00010000D     43
     126       0              12       0                               0D     44
     126      47                                                00010000D     45
     126       0               2       0                               0D     46
     126      49                                                00010000D     47
     126       0               2       0                               0D     48
     126      51                                                00010000D     49
     126       0               2       0                               0D     50
     126      53                                                00010000D     51
     126       0               2       0                               0D     52
     126      55                                                00010000D     53
     126       0               2       0                               0D     54
     126      57                                                00010000D     55
     126       0               2       0                               0D     56
     126      59                                                00010000D     57
     126       0               2       0                               0D     58
     126      61                                                00010000D     59
     126       0               2       0                               0D     60
     126      63                                                00010000D     61
     126       0               2       0                               0D     62
     126      65                                                00010000D     63
     126       0               2       0                               0D     64
     126      67                                                00010000D     65
     126       0               2       0                               0D     66
     126      69                                                00010000D     67
     126       0               2       0                               0D     68
     128      71                                                00010000D     69
     128       0     -91      18       0                               0D     70
     128      89                                                00010000D     71
     128       0     -91       7       0                               0D     72
     128      96                                                00010000D     73
     128       0     -91       3       0                               0D     74
     128      99                                                00010000D     75
     128       0     -91       3       0                               0D     76
     128     102                                                00010000D     77
     128       0     -91       3       0                               0D     78
     128     105                                                00010000D     79
     128       0     -91       3       0                               0D     80
     128     108                                                00010000D     81
     128       0     -91       3       0                               0D     82
     128     111                                                00010000D     83
     128       0     -91       3       0                               0D     84
     502     114                                                00010000D     85
     502                       4       1                               0D     86
     504     118                                                00010001D     87
     504                       4       1                               0D     88
     406     122                                                00000000D     89
     406                       1      15                               0D     90
     314     123                                                00000200D     91
     314                       2       0                               0D     92
186,3,1,0,0,1,89;                                                      1P      1
514,8,5,1,7,1,9,1,11,1,13,1,15,1,17,1,19,1;                            3P      2
510,69,1,1,21;                                                         5P      3
510,71,1,1,23;                                                         7P      4
510,73,1,1,25;                                                         9P      5
510,75,1,1,27;                                                        11P      6
510,77,1,1,29;                                                        13P      7
510,79,1,1,31;                                                        15P      8
510,81,2,1,33,35;                                                     17P      9
510,83,1,1,37;                                                        19P     10
508,4,0,87,1,0,0,0,87,2,1,0,0,87,3,0,0,0,87,2,0,0;                    21P     11
508,1,0,87,1,1,0;                                                     23P     12
508,4,0,87,4,0,0,0,87,5,1,0,0,87,6,0,0,0,87,7,0,0;                    25P     13
508,4,0,87,8,0,0,0,87,7,1,0,0,87,9,0,0,0,87,10,0,0;                   27P     14
508,4,0,87,11,0,0,0,87,10,1,0,0,87,12,0,0,0,87,13,0,0;                29P     15
508,4,0,87,14,0,0,0,87,13,1,0,0,87,15,0,0,0,87,5,0,0;                 31P     16
508,4,0,87,15,1,0,0,87,12,1,0,0,87,9,1,0,0,87,6,1,0;                  33P     17
508,1,0,87,3,1,0;                                                     35P     18
508,4,0,87,14,1,0,0,87,4,1,0,0,87,8,1,0,0,87,11,1,0;                  37P     19
126,8,2,0,1,0,0,-3.14159265358979,-3.14159265358979,                  39P     20
-3.14159265358979,-1.5707963267949,-1.5707963267949,0.,0.,            39P     21
1.5707963267949,1.5707963267949,3.14159265358979,                     39P     22
3.14159265358979,3.14159265358979,1.,0.707106781186548,1.,            39P     23
0.707106781186548,1.,0.707106781186548,1.,0.707106781186548,1.,       39P     24
2.00000002980232,7.,-2.44929363479203D-16,2.00000002980232,7.,        39P     25
-2.00000002980232,-1.22464681739601D-16,7.,-2.00000002980232,         39P     26
-2.00000002980232,7.,-2.00000002980232,-2.00000002980232,7.,0.,       39P     27
-2.00000002980232,7.,2.00000002980232,-1.22464681739601D-16,7.,       39P     28
2.00000002980232,2.00000002980232,7.,2.00000002980232,                39P     29
2.00000002980232,7.,2.44929363479203D-16,-3.14159265358979,           39P     30
3.14159265358979,0.,0.,0.;                                            39P     31
126,1,1,0,0,1,0,-2.4999999627471,-2.4999999627471,0.,0.,1.,1.,        41P     32
2.00000002980232,7.,0.,2.00000002980232,2.,0.,-2.4999999627471,       41P     33
0.,0.,0.,0.;                                                          41P     34
126,8,2,0,1,0,0,-3.14159265358979,-3.14159265358979,                  43P     35
-3.14159265358979,-1.5707963267949,-1.5707963267949,0.,0.,            43P     36
1.5707963267949,1.5707963267949,3.14159265358979,                     43P     37
3.14159265358979,3.14159265358979,1.,0.707106781186548,1.,            43P     38
0.707106781186548,1.,0.707106781186548,1.,0.707106781186548,1.,       43P     39
2.00000002980232,2.,2.44929363479203D-16,2.00000002980232,2.,         43P     40
2.00000002980232,-1.22464681739601D-16,2.,2.00000002980232,           43P     41
-2.00000002980232,2.,2.00000002980232,-2.00000002980232,2.,0.,        43P     42
-2.00000002980232,2.,-2.00000002980232,-1.22464681739601D-16,2.,      43P     43
-2.00000002980232,2.00000002980232,2.,-2.00000002980232,              43P     44
2.00000002980232,2.,-2.44929363479203D-16,-3.14159265358979,          43P     45
3.14159265358979,0.,0.,0.;                                            43P     46
126,1,1,0,0,1,0,0.,0.,2.,2.,1.,1.,10.,0.,-10.,10.,0.,10.,0.,2.,       45P     47
0.,0.,0.;                                                             45P     48
126,1,1,0,0,1,0,0.,0.,0.2,0.2,1.,1.,10.,0.,-10.,10.,2.,-10.,0.,       47P     49
0.2,0.,0.,0.;                                                         47P     50
126,1,1,0,0,1,0,-2.,-2.,0.,0.,1.,1.,10.,2.,10.,10.,2.,-10.,-2.,       49P     51
0.,0.,0.,0.;                                                          49P     52
126,1,1,0,0,1,0,0.,0.,0.2,0.2,1.,1.,10.,0.,10.,10.,2.,10.,0.,         51P     53
0.2,0.,0.,0.;                                                         51P     54
126,1,1,0,0,1,0,0.,0.,2.,2.,1.,1.,10.,0.,10.,-10.,0.,10.,0.,2.,       53P     55
0.,0.,0.;                                                             53P     56
126,1,1,0,0,1,0,-2.,-2.,0.,0.,1.,1.,-10.,2.,10.,10.,2.,10.,-2.,       55P     57
0.,0.,0.,0.;                                                          55P     58
126,1,1,0,0,1,0,0.,0.,0.2,0.2,1.,1.,-10.,0.,10.,-10.,2.,10.,0.,       57P     59
0.2,0.,0.,0.;                                                         57P     60
126,1,1,0,0,1,0,0.,0.,2.,2.,1.,1.,-10.,0.,10.,-10.,0.,-10.,0.,        59P     61
2.,0.,0.,0.;                                                          59P     62
126,1,1,0,0,1,0,-2.,-2.,0.,0.,1.,1.,-10.,2.,-10.,-10.,2.,10.,         61P     63
-2.,0.,0.,0.,0.;                                                      61P     64
126,1,1,0,0,1,0,0.,0.,0.2,0.2,1.,1.,-10.,0.,-10.,-10.,2.,-10.,        63P     65
0.,0.2,0.,0.,0.;                                                      63P     66
126,1,1,0,0,1,0,0.,0.,2.,2.,1.,1.,-10.,0.,-10.,10.,0.,-10.,0.,        65P     67
2.,0.,0.,0.;                                                          65P     68
126,1,1,0,0,1,0,-2.,-2.,0.,0.,1.,1.,10.,2.,-10.,-10.,2.,-10.,         67P     69
-2.,0.,0.,0.,0.;                                                      67P     70
128,1,8,1,2,0,1,0,0,1,0.,0.,2.4999999627471,2.4999999627471,          69P     71
-3.14159265358979,-3.14159265358979,-3.14159265358979,                69P     72
-1.5707963267949,-1.5707963267949,0.,0.,1.5707963267949,              69P     73
1.5707963267949,3.14159265358979,3.14159265358979,                    69P     74
3.14159265358979,1.,1.,0.707106781186548,0.707106781186548,1.,        69P     75
1.,0.707106781186548,0.707106781186548,1.,1.,0.707106781186548,       69P     76
0.707106781186548,1.,1.,0.707106781186548,0.707106781186548,1.,       69P     77
1.,2.00000002980232,7.,0.,2.00000002980232,2.,0.,                     69P     78
2.00000002980232,7.,-2.00000002980232,2.00000002980232,2.,            69P     79
-2.00000002980232,0.,7.,-2.00000002980232,0.,2.,                      69P     80
-2.00000002980232,-2.00000002980232,7.,-2.00000002980232,             69P     81
-2.00000002980232,2.,-2.00000002980232,-2.00000002980232,7.,0.,       69P     82
-2.00000002980232,2.,0.,-2.00000002980232,7.,2.00000002980232,        69P     83
-2.00000002980232,2.,2.00000002980232,0.,7.,2.00000002980232,0.,      69P     84
2.,2.00000002980232,2.00000002980232,7.,2.00000002980232,             69P     85
2.00000002980232,2.,2.00000002980232,2.00000002980232,7.,0.,          69P     86
2.00000002980232,2.,0.,0.,2.4999999627471,-3.14159265358979,          69P     87
3.14159265358979;                                                     69P     88
128,1,1,1,1,0,0,1,0,0,-0.201000002980232,-0.201000002980232,          71P     89
0.201000002980232,0.201000002980232,-0.201000002980232,               71P     90
-0.201000002980232,0.201000002980232,0.201000002980232,1.,1.,1.,      71P     91
1.,2.01000002980232,7.,-2.01000002980232,-2.01000002980232,7.,        71P     92
-2.01000002980232,2.01000002980232,7.,2.01000002980232,               71P     93
-2.01000002980232,7.,2.01000002980232,-0.201000002980232,             71P     94
0.201000002980232,-0.201000002980232,0.201000002980232;               71P     95
128,1,1,1,1,0,0,1,0,0,-0.001,-0.001,2.001,2.001,-0.001,-0.001,        73P     96
0.201,0.201,1.,1.,1.,1.,10.,-0.01,10.01,10.,-0.01,-10.01,10.,         73P     97
2.01,10.01,10.,2.01,-10.01,-0.001,2.001,-0.001,0.201;                 73P     98
128,1,1,1,1,0,0,1,0,0,-0.001,-0.001,2.001,2.001,-0.001,-0.001,        75P     99
0.201,0.201,1.,1.,1.,1.,-10.01,-0.01,10.,10.01,-0.01,10.,-10.01,      75P    100
2.01,10.,10.01,2.01,10.,-0.001,2.001,-0.001,0.201;                    75P    101
128,1,1,1,1,0,0,1,0,0,-0.001,-0.001,2.001,2.001,-0.001,-0.001,        77P    102
0.201,0.201,1.,1.,1.,1.,-10.,-0.01,-10.01,-10.,-0.01,10.01,-10.,      77P    103
2.01,-10.01,-10.,2.01,10.01,-0.001,2.001,-0.001,0.201;                77P    104
128,1,1,1,1,0,0,1,0,0,-0.001,-0.001,2.001,2.001,-0.001,-0.001,        79P    105
0.201,0.201,1.,1.,1.,1.,10.01,-0.01,-10.,-10.01,-0.01,-10.,           79P    106
10.01,2.01,-10.,-10.01,2.01,-10.,-0.001,2.001,-0.001,0.201;           79P    107
128,1,1,1,1,0,0,1,0,0,-1.001,-1.001,1.001,1.001,-1.001,-1.001,        81P    108
1.001,1.001,1.,1.,1.,1.,-10.01,2.,-10.01,-10.01,2.,10.01,10.01,       81P    109
2.,-10.01,10.01,2.,10.01,-1.001,1.001,-1.001,1.001;                   81P    110
128,1,1,1,1,0,0,1,0,0,-1.001,-1.001,1.001,1.001,-1.001,-1.001,        83P    111
1.001,1.001,1.,1.,1.,1.,10.01,0.,10.01,-10.01,0.,10.01,10.01,0.,      83P    112
-10.01,-10.01,0.,-10.01,-1.001,1.001,-1.001,1.001;                    83P    113
502,10,2.00000002980232,7.,-2.44929363479203D-16,                     85P    114
2.00000002980232,2.,-2.44929363479203D-16,10.,0.,-10.,10.,0.,         85P    115
10.,10.,2.,-10.,10.,2.,10.,-10.,0.,10.,-10.,2.,10.,-10.,0.,-10.,      85P    116
-10.,2.,-10.;                                                         85P    117
504,15,39,85,1,85,1,41,85,1,85,2,43,85,2,85,2,45,85,3,85,4,47,        87P    118
85,3,85,5,49,85,6,85,5,51,85,4,85,6,53,85,4,85,7,55,85,8,85,6,        87P    119
57,85,7,85,8,59,85,7,85,9,61,85,10,85,8,63,85,9,85,10,65,85,9,        87P    120
85,3,67,85,5,85,10;                                                   87P    121
406,1,5HBody1;                                                        89P    122
314,62.7450980392157,62.7450980392157,62.7450980392157,13HSteel       91P    123
- Satin;                                                              91P    124
S      1G      3D     92P    124                                        T      1
