                                                                        S      1
,,8Hhinge v1,8Hhinge v1,7Hunknown,7Hunknown,32,38,7,99,15,,1.,2,2HMM,1, G      1
0.08,15H20170311.094319,0.01,10000.,7Hunknown,7Hunknown,11,0,;          G      2
     186       1                                                00000000D      1
     186            -207       1       0                               0D      2
     514       2                                                00010000D      3
     514                       2       1                               0D      4
     510       4                                                00010000D      5
     510            -207       1       1                               0D      6
     510       5                                                00010000D      7
     510            -207       1       1                               0D      8
     510       6                                                00010000D      9
     510            -207       1       1                               0D     10
     510       7                                                00010000D     11
     510            -207       1       1                               0D     12
     510       8                                                00010000D     13
     510            -207       1       1                               0D     14
     510       9                                                00010000D     15
     510            -207       1       1                               0D     16
     510      10                                                00010000D     17
     510            -207       1       1                               0D     18
     510      11                                                00010000D     19
     510            -207       1       1                               0D     20
     510      12                                                00010000D     21
     510            -207       1       1                               0D     22
     510      13                                                00010000D     23
     510            -207       1       1                               0D     24
     510      14                                                00010000D     25
     510            -207       1       1                               0D     26
     510      15                                                00010000D     27
     510            -207       1       1                               0D     28
     510      16                                                00010000D     29
     510            -207       1       1                               0D     30
     510      17                                                00010000D     31
     510            -207       1       1                               0D     32
     510      18                                                00010000D     33
     510            -207       1       1                               0D     34
     510      19                                                00010000D     35
     510            -207       1       1                               0D     36
     508      20                                                00010000D     37
     508                       2       1                               0D     38
     508      22                                                00010000D     39
     508                       2       1                               0D     40
     508      24                                                00010000D     41
     508                       2       1                               0D     42
     508      26                                                00010000D     43
     508                       2       1                               0D     44
     508      28                                                00010000D     45
     508                       3       1                               0D     46
     508      31                                                00010000D     47
     508                       2       1                               0D     48
     508      33                                                00010000D     49
     508                       2       1                               0D     50
     508      35                                                00010000D     51
     508                       1       1                               0D     52
     508      36                                                00010000D     53
     508                       1       1                               0D     54
     508      37                                                00010000D     55
     508                       1       1                               0D     56
     508      38                                                00010000D     57
     508                       1       1                               0D     58
     508      39                                                00010000D     59
     508                       1       1                               0D     60
     508      40                                                00010000D     61
     508                       1       1                               0D     62
     508      41                                                00010000D     63
     508                       3       1                               0D     64
     508      44                                                00010000D     65
     508                       2       1                               0D     66
     508      46                                                00010000D     67
     508                       1       1                               0D     68
     508      47                                                00010000D     69
     508                       2       1                               0D     70
     508      49                                                00010000D     71
     508                       1       1                               0D     72
     126      50                                                00010000D     73
     126       0               5       0                               0D     74
     126      55                                                00010000D     75
     126       0              10       0                               0D     76
     126      65                                                00010000D     77
     126       0               5       0                               0D     78
     126      70                                                00010000D     79
     126       0               5       0                               0D     80
     126      75                                                00010000D     81
     126       0               9       0                               0D     82
     126      84                                                00010000D     83
     126       0               5       0                               0D     84
     126      89                                                00010000D     85
     126       0               5       0                               0D     86
     126      94                                                00010000D     87
     126       0              10       0                               0D     88
     126     104                                                00010000D     89
     126       0               5       0                               0D     90
     126     109                                                00010000D     91
     126       0               5       0                               0D     92
     126     114                                                00010000D     93
     126       0               9       0                               0D     94
     126     123                                                00010000D     95
     126       0               5       0                               0D     96
     126     128                                                00010000D     97
     126       0              12       0                               0D     98
     126     140                                                00010000D     99
     126       0               4       0                               0D    100
     126     144                                                00010000D    101
     126       0               7       0                               0D    102
     126     151                                                00010000D    103
     126       0               7       0                               0D    104
     126     158                                                00010000D    105
     126       0               5       0                               0D    106
     126     163                                                00010000D    107
     126       0               5       0                               0D    108
     126     168                                                00010000D    109
     126       0               5       0                               0D    110
     126     173                                                00010000D    111
     126       0               5       0                               0D    112
     126     178                                                00010000D    113
     126       0               5       0                               0D    114
     126     183                                                00010000D    115
     126       0               4       0                               0D    116
     126     187                                                00010000D    117
     126       0               3       0                               0D    118
     126     190                                                00010000D    119
     126       0               2       0                               0D    120
     126     192                                                00010000D    121
     126       0               3       0                               0D    122
     126     195                                                00010000D    123
     126       0               4       0                               0D    124
     126     199                                                00010000D    125
     126       0               7       0                               0D    126
     126     206                                                00010000D    127
     126       0               4       0                               0D    128
     126     210                                                00010000D    129
     126       0              12       0                               0D    130
     126     222                                                00010000D    131
     126       0               7       0                               0D    132
     126     229                                                00010000D    133
     126       0               5       0                               0D    134
     126     234                                                00010000D    135
     126       0               5       0                               0D    136
     126     239                                                00010000D    137
     126       0               5       0                               0D    138
     126     244                                                00010000D    139
     126       0               4       0                               0D    140
     126     248                                                00010000D    141
     126       0               8       0                               0D    142
     126     256                                                00010000D    143
     126       0               4       0                               0D    144
     126     260                                                00010000D    145
     126       0               3       0                               0D    146
     126     263                                                00010000D    147
     126       0               4       0                               0D    148
     126     267                                                00010000D    149
     126       0               2       0                               0D    150
     126     269                                                00010000D    151
     126       0               2       0                               0D    152
     126     271                                                00010000D    153
     126       0               3       0                               0D    154
     126     274                                                00010000D    155
     126       0               2       0                               0D    156
     126     276                                                00010000D    157
     126       0               3       0                               0D    158
     126     279                                                00010000D    159
     126       0               3       0                               0D    160
     126     282                                                00010000D    161
     126       0               8       0                               0D    162
     126     290                                                00010000D    163
     126       0               4       0                               0D    164
     126     294                                                00010000D    165
     126       0               3       0                               0D    166
     126     297                                                00010000D    167
     126       0               3       0                               0D    168
     128     300                                                00010000D    169
     128       0    -207       8       0                               0D    170
     128     308                                                00010000D    171
     128       0    -207       9       0                               0D    172
     128     317                                                00010000D    173
     128       0    -207      24       0                               0D    174
     128     341                                                00010000D    175
     128       0    -207       8       0                               0D    176
     128     349                                                00010000D    177
     128       0    -207       6       0                               0D    178
     128     355                                                00010000D    179
     128       0    -207      23       0                               0D    180
     128     378                                                00010000D    181
     128       0    -207       9       0                               0D    182
     128     387                                                00010000D    183
     128       0    -207       8       0                               0D    184
     128     395                                                00010000D    185
     128       0    -207      15       0                               0D    186
     128     410                                                00010000D    187
     128       0    -207       6       0                               0D    188
     128     416                                                00010000D    189
     128       0    -207       4       0                               0D    190
     128     420                                                00010000D    191
     128       0    -207       5       0                               0D    192
     128     425                                                00010000D    193
     128       0    -207      16       0                               0D    194
     128     441                                                00010000D    195
     128       0    -207       6       0                               0D    196
     128     447                                                00010000D    197
     128       0    -207       7       0                               0D    198
     128     454                                                00010000D    199
     128       0    -207       7       0                               0D    200
     502     461                                                00010000D    201
     502                      25       1                               0D    202
     504     486                                                00010001D    203
     504                      14       1                               0D    204
     406     500                                                00000000D    205
     406                       1      15                               0D    206
     314     501                                                00000200D    207
     314                       2       0                               0D    208
186,3,1,0,0,1,205;                                                     1P      1
514,16,5,1,7,1,9,1,11,1,13,1,15,1,17,1,19,1,21,1,23,1,25,1,27,1,       3P      2
29,1,31,1,33,1,35,1;                                                   3P      3
510,169,1,1,37;                                                        5P      4
510,171,1,1,39;                                                        7P      5
510,173,1,1,41;                                                        9P      6
510,175,1,1,43;                                                       11P      7
510,177,1,1,45;                                                       13P      8
510,179,1,1,47;                                                       15P      9
510,181,1,1,49;                                                       17P     10
510,183,1,1,51;                                                       19P     11
510,185,1,1,53;                                                       21P     12
510,187,1,1,55;                                                       23P     13
510,189,1,1,57;                                                       25P     14
510,191,1,1,59;                                                       27P     15
510,193,1,1,61;                                                       29P     16
510,195,1,1,63;                                                       31P     17
510,197,2,1,65,67;                                                    33P     18
510,199,2,1,69,71;                                                    35P     19
508,6,0,203,1,0,0,0,203,2,0,0,0,203,3,0,0,0,203,4,0,0,0,203,5,0,      37P     20
0,0,203,6,0,0;                                                        37P     21
508,6,0,203,7,0,0,0,203,8,0,0,0,203,9,0,0,0,203,10,0,0,0,203,11,      39P     22
0,0,0,203,12,0,0;                                                     39P     23
508,6,0,203,13,0,0,0,203,14,1,0,0,203,15,1,0,0,203,5,1,0,0,203,       41P     24
16,1,0,0,203,14,0,0;                                                  41P     25
508,7,0,203,6,1,0,0,203,15,0,0,0,203,16,0,0,0,203,4,1,0,0,203,        43P     26
17,0,0,0,203,18,1,0,0,203,19,0,0;                                     43P     27
508,10,0,203,1,1,0,0,203,19,1,0,0,203,20,1,0,0,203,21,1,0,0,203,      45P     28
9,1,0,0,203,22,0,0,0,203,23,0,0,0,203,24,1,0,0,203,25,0,0,0,203,      45P     29
26,0,0;                                                               45P     30
508,6,0,203,11,1,0,0,203,27,1,0,0,203,28,1,0,0,203,29,1,0,0,203,      47P     31
28,0,0,0,203,30,1,0;                                                  47P     32
508,7,0,203,12,1,0,0,203,30,0,0,0,203,27,0,0,0,203,10,1,0,0,203,      49P     33
21,0,0,0,203,31,0,0,0,203,32,0,0;                                     49P     34
508,4,0,203,20,0,0,0,203,18,0,0,0,203,33,0,0,0,203,31,1,0;            51P     35
508,4,0,203,8,1,0,0,203,34,0,0,0,203,35,1,0,0,203,22,1,0;             53P     36
508,4,0,203,36,0,0,0,203,37,1,0,0,203,38,0,0,0,203,39,0,0;            55P     37
508,4,0,203,40,0,0,0,203,39,1,0,0,203,41,0,0,0,203,42,0,0;            57P     38
508,4,0,203,43,0,0,0,203,42,1,0,0,203,44,0,0,0,203,24,0,0;            59P     39
508,4,0,203,2,1,0,0,203,26,1,0,0,203,45,0,0,0,203,46,0,0;             61P     40
508,10,0,203,3,1,0,0,203,46,1,0,0,203,47,0,0,0,203,37,0,0,0,203,      63P     41
48,1,0,0,203,34,1,0,0,203,7,1,0,0,203,32,1,0,0,203,33,1,0,0,203,      63P     42
17,1,0;                                                               63P     43
508,6,0,203,47,1,0,0,203,45,1,0,0,203,25,1,0,0,203,44,1,0,0,203,      65P     44
41,1,0,0,203,38,1,0;                                                  65P     45
508,1,0,203,13,1,0;                                                   67P     46
508,6,0,203,48,0,0,0,203,36,1,0,0,203,40,1,0,0,203,43,1,0,0,203,      69P     47
23,1,0,0,203,35,0,0;                                                  69P     48
508,1,0,203,29,0,0;                                                   71P     49
126,1,1,0,0,1,0,0.200595683406862,0.200595683406862,                  73P     50
0.424078238204253,0.424078238204253,1.,1.,13.7253029514058,           73P     51
11.7394156378807,-17.4542476868161,12.0000001788139,                  73P     52
11.0000001639128,-18.6671122009398,0.200595683406862,                 73P     53
0.424078238204253,0.,0.,0.;                                           73P     54
126,4,2,0,0,0,0,-0.957693930947288,-0.957693930947288,                75P     55
-0.957693930947288,0.000187448423203507,0.000187448423203507,         75P     56
0.958068827793695,0.958068827793695,0.958068827793695,1.,             75P     57
0.887483592466125,1.,0.88748359246612,1.,13.7262229197749,            75P     58
11.7398099100389,-12.5463997432415,15.0002921771237,                  75P     59
12.2858395917598,-13.4427670790302,15.0000001708121,                  75P     60
12.2857144461977,-15.0005625687921,14.9997081645004,                  75P     61
12.2855893006355,-16.558358058554,13.7253029514058,                   75P     62
11.7394156378807,-17.4542476868161,-0.957693930947288,                75P     63
0.958068827793695,0.,0.,0.;                                           75P     64
126,1,1,0,0,1,0,1.00884005236601,1.00884005236601,                    77P     65
1.23249428014094,1.23249428014094,1.,1.,12.0000001788139,             77P     66
11.0000001639128,-11.3319212756323,13.7262229197749,                  77P     67
11.7398099100389,-12.5463997432415,1.00884005236601,                  77P     68
1.23249428014094,0.,0.,0.;                                            77P     69
126,1,1,0,0,1,0,-1.36500002235174,-1.36500002235174,                  79P     70
-1.13319212756323,-1.13319212756323,1.,1.,12.0000001788139,           79P     71
11.0000001639128,-13.6500002235174,12.0000001788139,                  79P     72
11.0000001639128,-11.3319212756323,-1.36500002235174,                 79P     73
-1.13319212756323,0.,0.,0.;                                           79P     74
126,4,2,0,0,0,0,-1.5707963267949,-1.5707963267949,                    81P     75
-1.5707963267949,0.,0.,1.5707963267949,1.5707963267949,               81P     76
1.5707963267949,1.,0.70710678118655,1.,0.70710678118655,1.,           81P     77
12.0000001788139,11.0000001639128,-16.3500002235174,                  81P     78
13.3500001788139,11.5785715924842,-16.3500002235174,                  81P     79
13.3500001788139,11.5785715924842,-15.0000002235174,                  81P     80
13.3500001788139,11.5785715924842,-13.6500002235174,                  81P     81
12.0000001788139,11.0000001639128,-13.6500002235174,                  81P     82
-1.5707963267949,1.5707963267949,0.,0.,0.;                            81P     83
126,1,1,0,0,1,0,-1.86671122009398,-1.86671122009398,                  83P     84
-1.63500002235174,-1.63500002235174,1.,1.,12.0000001788139,           83P     85
11.0000001639128,-18.6671122009398,12.0000001788139,                  83P     86
11.0000001639128,-16.3500002235174,-1.86671122009398,                 83P     87
-1.63500002235174,0.,0.,0.;                                           83P     88
126,1,1,0,0,1,0,-0.824528804640661,-0.824528804640661,                85P     89
-0.600874576865722,-0.600874576865722,1.,1.,13.7262229197749,         85P     90
3.26019031347852,-12.5463997432415,12.0000001788139,                  85P     91
4.00000005960465,-11.3319212756323,-0.824528804640661,                85P     92
-0.600874576865722,0.,0.,0.;                                          85P     93
126,4,2,0,0,0,0,-0.958068827793695,-0.958068827793695,                87P     94
-0.958068827793695,-0.000187448423203229,-0.000187448423203229,       87P     95
0.957693930947288,0.957693930947288,0.957693930947288,1.,             87P     96
0.88748359246612,1.,0.887483592466122,1.,13.7253029514058,            87P     97
3.26058458563671,-17.4542476868161,14.9997081645004,                  87P     98
2.71441092288187,-16.558358058554,15.0000001708121,                   87P     99
2.71428577731974,-15.0005625687921,15.0002921771237,                  87P    100
2.7141606317576,-13.4427670790302,13.7262229197749,                   87P    101
3.26019031347852,-12.5463997432415,-0.958068827793695,                87P    102
0.957693930947288,0.,0.,0.;                                           87P    103
126,1,1,0,0,1,0,-0.832139514236709,-0.832139514236709,                89P    104
-0.608656959439318,-0.608656959439318,1.,1.,12.0000001788139,         89P    105
4.00000005960464,-18.6671122009398,13.7253029514058,                  89P    106
3.26058458563671,-17.4542476868161,-0.832139514236709,                89P    107
-0.608656959439318,0.,0.,0.;                                          89P    108
126,1,1,0,0,1,0,1.63500002235174,1.63500002235174,                    91P    109
1.86671122009398,1.86671122009398,1.,1.,12.0000001788139,             91P    110
4.00000005960464,-16.3500002235174,12.0000001788139,                  91P    111
4.00000005960464,-18.6671122009398,1.63500002235174,                  91P    112
1.86671122009398,0.,0.,0.;                                            91P    113
126,4,2,0,0,0,0,-1.5707963267949,-1.5707963267949,                    93P    114
-1.5707963267949,0.,0.,1.5707963267949,1.5707963267949,               93P    115
1.5707963267949,1.,0.707106781186551,1.,0.707106781186551,1.,         93P    116
12.0000001788139,4.00000005960464,-13.6500002235174,                  93P    117
13.3500001788139,3.42142863103322,-13.6500002235174,                  93P    118
13.3500001788139,3.42142863103322,-15.0000002235174,                  93P    119
13.3500001788139,3.42142863103322,-16.3500002235174,                  93P    120
12.0000001788139,4.00000005960464,-16.3500002235174,                  93P    121
-1.5707963267949,1.5707963267949,0.,0.,0.;                            93P    122
126,1,1,0,0,1,0,1.13319212756323,1.13319212756323,                    95P    123
1.36500002235174,1.36500002235174,1.,1.,12.0000001788139,             95P    124
4.00000005960464,-11.3319212756323,12.0000001788139,                  95P    125
4.00000005960464,-13.6500002235174,1.13319212756323,                  95P    126
1.36500002235174,0.,0.,0.;                                            95P    127
126,8,2,0,1,0,0,-3.14159265358979,-3.14159265358979,                  97P    128
-3.14159265358979,-1.5707963267949,-1.5707963267949,0.,0.,            97P    129
1.5707963267949,1.5707963267949,3.14159265358979,                     97P    130
3.14159265358979,3.14159265358979,1.,0.707106781186551,1.,            97P    131
0.707106781186551,1.,0.707106781186551,1.,0.707106781186551,1.,       97P    132
10.6500001788139,15.,-15.0000002235174,10.6500001788139,15.,          97P    133
-16.3500002235174,12.0000001788139,15.,-16.3500002235174,             97P    134
13.3500001788139,15.,-16.3500002235174,13.3500001788139,15.,          97P    135
-15.0000002235174,13.3500001788139,15.,-13.6500002235174,             97P    136
12.0000001788139,15.,-13.6500002235174,10.6500001788139,15.,          97P    137
-13.6500002235174,10.6500001788139,15.,-15.0000002235174,             97P    138
-3.14159265358979,3.14159265358979,0.,0.,0.;                          97P    139
126,1,1,0,0,1,0,-11.1111111111111,-11.1111111111111,                  99P    140
-8.14814826956502,-8.14814826956502,1.,1.,10.6500001788139,15.,       99P    141
-15.0000002235174,10.6500001788139,11.0000001639128,                  99P    142
-15.0000002235174,-11.1111111111111,-8.14814826956502,0.,0.,0.;       99P    143
126,2,2,0,0,0,0,-3.14159265358979,-3.14159265358979,                 101P    144
-3.14159265358979,-1.5707963267949,-1.5707963267949,                 101P    145
-1.5707963267949,1.,0.707106781186551,1.,10.6500001788139,           101P    146
11.0000001639128,-15.0000002235174,10.6500001788139,                 101P    147
11.0000001639128,-16.3500002235174,12.0000001788139,                 101P    148
11.0000001639128,-16.3500002235174,-3.14159265358979,                101P    149
-1.5707963267949,0.,0.,0.;                                           101P    150
126,2,2,0,0,0,0,-4.71238898038469,-4.71238898038469,                 103P    151
-4.71238898038469,-3.14159265358979,-3.14159265358979,               103P    152
-3.14159265358979,1.,0.707106781186551,1.,12.0000001788139,          103P    153
11.0000001639128,-13.6500002235174,10.6500001788139,                 103P    154
11.0000001639128,-13.6500002235174,10.6500001788139,                 103P    155
11.0000001639128,-15.0000002235174,-4.71238898038469,                103P    156
-3.14159265358979,0.,0.,0.;                                          103P    157
126,1,1,0,0,1,0,0.428667744317251,0.428667744317251,                 105P    158
1.10114888476286,1.10114888476286,1.,1.,6.50000009685755,            105P    159
11.0000001639128,-7.46241387494388,12.0000001788139,                 105P    160
11.0000001639128,-11.3319212756323,0.428667744317251,                105P    161
1.10114888476286,0.,0.,0.;                                           105P    162
126,1,1,0,0,1,0,0.746241387494388,0.746241387494388,                 107P    163
2.25335378701348,2.25335378701348,1.,1.,6.50000009685755,            107P    164
11.0000001639128,-7.46241387494388,6.50000009685755,                 107P    165
11.0000001639128,-22.5335378701348,0.746241387494388,                107P    166
2.25335378701348,0.,0.,0.;                                           107P    167
126,1,1,0,0,1,0,0.417248954604707,0.417248954604707,                 109P    168
1.08955281713214,1.08955281713214,1.,1.,12.0000001788139,            109P    169
11.0000001639128,-18.6671122009398,6.50000009685755,                 109P    170
11.0000001639128,-22.5335378701348,0.417248954604707,                109P    171
1.08955281713214,0.,0.,0.;                                           109P    172
126,1,1,0,0,1,0,-0.900000013411045,-0.900000013411045,               111P    173
-0.200000002980232,-0.200000002980232,1.,1.,6.50000009685755,        111P    174
11.0000001639128,-22.5335378701348,6.50000009685755,                 111P    175
4.00000005960464,-22.5335378701348,-0.900000013411045,               111P    176
-0.200000002980232,0.,0.,0.;                                         111P    177
126,1,1,0,0,1,0,-1.58040230979187,-1.58040230979187,                 113P    178
-0.908098447264435,-0.908098447264435,1.,1.,6.50000009685755,        113P    179
4.00000005960464,-22.5335378701348,12.0000001788139,                 113P    180
4.00000005960464,-18.6671122009398,-1.58040230979187,                113P    181
-0.908098447264435,0.,0.,0.;                                         113P    182
126,1,1,0,0,1,0,0.,0.,0.326058458563671,0.326058458563671,1.,1.,     115P    183
13.7253029514058,0.,-17.4542476868161,13.7253029514058,              115P    184
3.26058458563671,-17.4542476868161,0.,0.326058458563671,0.,0.,       115P    185
0.;                                                                  115P    186
126,1,1,0,0,1,0,0.,0.,1.31207447391198,1.31207447391198,1.,1.,       117P    187
2.99145161382799,0.,-25.,13.7253029514058,0.,-17.4542476868161,      117P    188
0.,1.31207447391198,0.,0.,0.;                                        117P    189
126,1,1,0,0,1,0,0.,0.,1.5,1.5,1.,1.,2.99145161382799,0.,-25.,        119P    190
2.99145161382799,15.,-25.,0.,1.5,0.,0.,0.;                           119P    191
126,1,1,0,0,1,0,-1.31207447391198,-1.31207447391198,0.,0.,1.,1.,     121P    192
13.7253029514058,15.,-17.4542476868161,2.99145161382799,15.,         121P    193
-25.,-1.31207447391198,0.,0.,0.,0.;                                  121P    194
126,1,1,0,0,1,0,1.17394156378807,1.17394156378807,1.5,1.5,1.,1.,     123P    195
13.7253029514058,11.7394156378807,-17.4542476868161,                 123P    196
13.7253029514058,15.,-17.4542476868161,1.17394156378807,1.5,0.,      123P    197
0.,0.;                                                               123P    198
126,2,2,0,0,0,0,-4.71238898038469,-4.71238898038469,                 125P    199
-4.71238898038469,-3.14159265358979,-3.14159265358979,               125P    200
-3.14159265358979,1.,0.707106781186551,1.,12.0000001788139,          125P    201
4.00000005960464,-16.3500002235174,10.6500001788139,                 125P    202
4.00000005960464,-16.3500002235174,10.6500001788139,                 125P    203
4.00000005960464,-15.0000002235174,-4.71238898038469,                125P    204
-3.14159265358979,0.,0.,0.;                                          125P    205
126,1,1,0,0,1,0,-2.96296300711455,-2.96296300711455,0.,0.,1.,1.,     127P    206
10.6500001788139,4.00000005960464,-15.0000002235174,                 127P    207
10.6500001788139,0.,-15.0000002235174,-2.96296300711455,0.,0.,       127P    208
0.,0.;                                                               127P    209
126,8,2,0,1,0,0,-3.14159265358979,-3.14159265358979,                 129P    210
-3.14159265358979,-1.5707963267949,-1.5707963267949,0.,0.,           129P    211
1.5707963267949,1.5707963267949,3.14159265358979,                    129P    212
3.14159265358979,3.14159265358979,1.,0.707106781186551,1.,           129P    213
0.707106781186551,1.,0.707106781186551,1.,0.707106781186551,1.,      129P    214
10.6500001788139,0.,-15.0000002235174,10.6500001788139,0.,           129P    215
-16.3500002235174,12.0000001788139,0.,-16.3500002235174,             129P    216
13.3500001788139,0.,-16.3500002235174,13.3500001788139,0.,           129P    217
-15.0000002235174,13.3500001788139,0.,-13.6500002235174,             129P    218
12.0000001788139,0.,-13.6500002235174,10.6500001788139,0.,           129P    219
-13.6500002235174,10.6500001788139,0.,-15.0000002235174,             129P    220
-3.14159265358979,3.14159265358979,0.,0.,0.;                         129P    221
126,2,2,0,0,0,0,-3.14159265358979,-3.14159265358979,                 131P    222
-3.14159265358979,-1.5707963267949,-1.5707963267949,                 131P    223
-1.5707963267949,1.,0.707106781186551,1.,10.6500001788139,           131P    224
4.00000005960464,-15.0000002235174,10.6500001788139,                 131P    225
4.00000005960464,-13.6500002235174,12.0000001788139,                 131P    226
4.00000005960464,-13.6500002235174,-3.14159265358979,                131P    227
-1.5707963267949,0.,0.,0.;                                           131P    228
126,1,1,0,0,1,0,0.746241387494388,0.746241387494388,                 133P    229
2.25335378701348,2.25335378701348,1.,1.,6.50000009685755,            133P    230
4.00000005960464,-7.46241387494388,6.50000009685755,                 133P    231
4.00000005960464,-22.5335378701348,0.746241387494388,                133P    232
2.25335378701348,0.,0.,0.;                                           133P    233
126,1,1,0,0,1,0,-0.610428788707677,-0.610428788707677,               135P    234
0.0620523517379304,0.0620523517379304,1.,1.,12.0000001788139,        135P    235
4.00000005960464,-11.3319212756323,6.50000009685755,                 135P    236
4.00000005960464,-7.46241387494388,-0.610428788707677,               135P    237
0.0620523517379304,0.,0.,0.;                                         135P    238
126,1,1,0,0,1,0,0.200000002980232,0.200000002980232,                 137P    239
0.900000013411045,0.900000013411045,1.,1.,6.50000009685755,          137P    240
4.00000005960464,-7.46241387494388,6.50000009685755,                 137P    241
11.0000001639128,-7.46241387494388,0.200000002980232,                137P    242
0.900000013411045,0.,0.,0.;                                          137P    243
126,1,1,0,0,1,0,0.,0.,0.326019031347852,0.326019031347852,1.,1.,     139P    244
13.7262229197749,0.,-12.5463997432415,13.7262229197749,              139P    245
3.26019031347852,-12.5463997432415,0.,0.326019031347852,0.,0.,       139P    246
0.;                                                                  139P    247
126,4,2,0,0,0,0,-0.957693930947288,-0.957693930947288,               141P    248
-0.957693930947288,0.000187448423203562,0.000187448423203562,        141P    249
0.958068827793695,0.958068827793695,0.958068827793695,1.,            141P    250
0.887483592466129,1.,0.88748359246612,1.,13.7262229197749,0.,        141P    251
-12.5463997432415,15.0002921771237,0.,-13.4427670790302,             141P    252
15.0000001708121,0.,-15.0005625687921,14.9997081645004,0.,           141P    253
-16.558358058554,13.7253029514058,0.,-17.4542476868161,              141P    254
-0.957693930947288,0.958068827793695,0.,0.,0.;                       141P    255
126,1,1,0,0,1,0,1.20000001788139,1.20000001788139,                   143P    256
1.50000002235174,1.50000002235174,1.,1.,3.00000004470348,0.,         143P    257
-5.00000007450581,0.,0.,-5.00000007450581,1.20000001788139,          143P    258
1.50000002235174,0.,0.,0.;                                           143P    259
126,1,1,0,0,1,0,0.,0.,1.5,1.5,1.,1.,3.00000004470348,0.,             145P    260
-5.00000007450581,3.00000004470348,15.,-5.00000007450581,0.,1.5,     145P    261
0.,0.,0.;                                                            145P    262
126,1,1,0,0,1,0,-1.50000002235174,-1.50000002235174,                 147P    263
-1.20000001788139,-1.20000001788139,1.,1.,0.,15.,                    147P    264
-5.00000007450581,3.00000004470348,15.,-5.00000007450581,            147P    265
-1.50000002235174,-1.20000001788139,0.,0.,0.;                        147P    266
126,1,1,0,0,1,0,0.,0.,1.5,1.5,1.,1.,0.,0.,-5.00000007450581,0.,      149P    267
15.,-5.00000007450581,0.,1.5,0.,0.,0.;                               149P    268
126,1,1,0,0,1,0,0.,0.,1.99999999254942,1.99999999254942,1.,1.,       151P    269
0.,0.,-5.00000007450581,0.,0.,-25.,0.,1.99999999254942,0.,0.,0.;     151P    270
126,1,1,0,0,1,0,-1.99999999254942,-1.99999999254942,0.,0.,1.,1.,     153P    271
0.,15.,-25.,0.,15.,-5.00000007450581,-1.99999999254942,0.,0.,0.,     153P    272
0.;                                                                  153P    273
126,1,1,0,0,1,0,0.,0.,1.5,1.5,1.,1.,0.,0.,-25.,0.,15.,-25.,0.,       155P    274
1.5,0.,0.,0.;                                                        155P    275
126,1,1,0,0,1,0,0.,0.,0.299145161382799,0.299145161382799,1.,1.,     157P    276
0.,0.,-25.,2.99145161382799,0.,-25.,0.,0.299145161382799,0.,0.,      157P    277
0.;                                                                  157P    278
126,1,1,0,0,1,0,-0.299145161382799,-0.299145161382799,0.,0.,1.,      159P    279
1.,2.99145161382799,15.,-25.,0.,15.,-25.,-0.299145161382799,0.,      159P    280
0.,0.,0.;                                                            159P    281
126,4,2,0,0,0,0,-0.957693930947288,-0.957693930947288,               161P    282
-0.957693930947288,0.000187448423203562,0.000187448423203562,        161P    283
0.958068827793695,0.958068827793695,0.958068827793695,1.,            161P    284
0.887483592466129,1.,0.88748359246612,1.,13.7262229197749,15.,       161P    285
-12.5463997432415,15.0002921771237,15.,-13.4427670790302,            161P    286
15.0000001708121,15.,-15.0005625687921,14.9997081645004,15.,         161P    287
-16.558358058554,13.7253029514058,15.,-17.4542476868161,             161P    288
-0.957693930947288,0.958068827793695,0.,0.,0.;                       161P    289
126,1,1,0,0,1,0,1.17398099100389,1.17398099100389,1.5,1.5,1.,1.,     163P    290
13.7262229197749,11.7398099100389,-12.5463997432415,                 163P    291
13.7262229197749,15.,-12.5463997432415,1.17398099100389,1.5,0.,      163P    292
0.,0.;                                                               163P    293
126,1,1,0,0,1,0,0.,0.,1.31148772440309,1.31148772440309,1.,1.,       165P    294
3.00000004470348,15.,-5.00000007450581,13.7262229197749,15.,         165P    295
-12.5463997432415,0.,1.31148772440309,0.,0.,0.;                      165P    296
126,1,1,0,0,1,0,0.,0.,1.31148772440309,1.31148772440309,1.,1.,       167P    297
3.00000004470348,0.,-5.00000007450581,13.7262229197749,0.,           167P    298
-12.5463997432415,0.,1.31148772440309,0.,0.,0.;                      167P    299
128,1,1,1,1,0,0,1,0,0,-0.001,-0.001,0.327422044435232,               169P    300
0.327422044435232,1.13219212756323,1.13219212756323,                 169P    301
1.86771122009398,1.86771122009398,1.,1.,1.,1.,15.0094836274239,      169P    302
12.2897787847456,-11.3219212756323,11.9908087285138,                 169P    303
10.996060970927,-11.3219212756323,15.0094836274239,                  169P    304
12.2897787847456,-18.6771122009398,11.9908087285138,                 169P    305
10.996060970927,-18.6771122009398,-0.001,0.327422044435232,          169P    306
1.13219212756323,1.86771122009398;                                   169P    307
128,1,1,1,1,0,0,1,0,0,0.0533666165321566,0.0533666165321566,         171P    308
0.381788660967389,0.381788660967389,1.13219212756323,                171P    309
1.13219212756323,1.86771122009398,1.86771122009398,1.,1.,1.,1.,      171P    310
11.9908087285138,4.00393925259044,-11.3219212756323,                 171P    311
15.0094836274239,2.71022143877181,-11.3219212756323,                 171P    312
11.9908087285138,4.00393925259044,-18.6771122009398,                 171P    313
15.0094836274239,2.71022143877181,-18.6771122009398,                 171P    314
0.0533666165321566,0.381788660967389,1.13219212756323,               171P    315
1.86771122009398;                                                    171P    316
128,1,8,1,2,0,1,0,0,1,8.14814826956502,8.14814826956502,             173P    317
11.1111111111111,11.1111111111111,-3.14159265358979,                 173P    318
-3.14159265358979,-3.14159265358979,-1.5707963267949,                173P    319
-1.5707963267949,0.,0.,1.5707963267949,1.5707963267949,              173P    320
3.14159265358979,3.14159265358979,3.14159265358979,1.,1.,            173P    321
0.707106781186548,0.707106781186548,1.,1.,0.707106781186548,         173P    322
0.707106781186548,1.,1.,0.707106781186548,0.707106781186548,1.,      173P    323
1.,0.707106781186548,0.707106781186548,1.,1.,10.6500001788139,       173P    324
11.0000001639128,-15.0000002235174,10.6500001788139,15.,             173P    325
-15.0000002235174,10.6500001788139,11.0000001639128,                 173P    326
-13.6500002235174,10.6500001788139,15.,-13.6500002235174,            173P    327
12.0000001788139,11.0000001639128,-13.6500002235174,                 173P    328
12.0000001788139,15.,-13.6500002235174,13.3500001788139,             173P    329
11.0000001639128,-13.6500002235174,13.3500001788139,15.,             173P    330
-13.6500002235174,13.3500001788139,11.0000001639128,                 173P    331
-15.0000002235174,13.3500001788139,15.,-15.0000002235174,            173P    332
13.3500001788139,11.0000001639128,-16.3500002235174,                 173P    333
13.3500001788139,15.,-16.3500002235174,12.0000001788139,             173P    334
11.0000001639128,-16.3500002235174,12.0000001788139,15.,             173P    335
-16.3500002235174,10.6500001788139,11.0000001639128,                 173P    336
-16.3500002235174,10.6500001788139,15.,-16.3500002235174,            173P    337
10.6500001788139,11.0000001639128,-15.0000002235174,                 173P    338
10.6500001788139,15.,-15.0000002235174,8.14814826956502,             173P    339
11.1111111111111,-3.14159265358979,3.14159265358979;                 173P    340
128,1,1,1,1,0,0,1,0,0,-0.001,-0.001,0.551000008195639,               175P    341
0.551000008195639,0.745241387494388,0.745241387494388,               175P    342
2.25435378701348,2.25435378701348,1.,1.,1.,1.,12.0100001788139,      175P    343
11.0000001639128,-7.45241387494388,6.49000009685755,                 175P    344
11.0000001639128,-7.45241387494388,12.0100001788139,                 175P    345
11.0000001639128,-22.5435378701348,6.49000009685755,                 175P    346
11.0000001639128,-22.5435378701348,-0.001,0.551000008195639,         175P    347
0.745241387494388,2.25435378701348;                                  175P    348
128,1,1,1,1,0,0,1,0,0,-0.001,-0.001,1.31307447391198,                177P    349
1.31307447391198,-0.001,-0.001,1.501,1.501,1.,1.,1.,1.,              177P    350
13.7334837761615,-0.01,-17.4484966776598,2.98327078907223,-0.01,     177P    351
-25.0057510091563,13.7334837761615,15.01,-17.4484966776598,          177P    352
2.98327078907223,15.01,-25.0057510091563,-0.001,                     177P    353
1.31307447391198,-0.001,1.501;                                       177P    354
128,1,8,1,2,0,1,0,0,1,0.,0.,2.96296300711455,2.96296300711455,       179P    355
-3.14159265358979,-3.14159265358979,-3.14159265358979,               179P    356
-1.5707963267949,-1.5707963267949,0.,0.,1.5707963267949,             179P    357
1.5707963267949,3.14159265358979,3.14159265358979,                   179P    358
3.14159265358979,1.,1.,0.707106781186548,0.707106781186548,1.,       179P    359
1.,0.707106781186548,0.707106781186548,1.,1.,0.707106781186548,      179P    360
0.707106781186548,1.,1.,0.707106781186548,0.707106781186548,1.,      179P    361
1.,10.6500001788139,0.,-15.0000002235174,10.6500001788139,           179P    362
4.00000005960464,-15.0000002235174,10.6500001788139,0.,              179P    363
-13.6500002235174,10.6500001788139,4.00000005960464,                 179P    364
-13.6500002235174,12.0000001788139,0.,-13.6500002235174,             179P    365
12.0000001788139,4.00000005960464,-13.6500002235174,                 179P    366
13.3500001788139,0.,-13.6500002235174,13.3500001788139,              179P    367
4.00000005960464,-13.6500002235174,13.3500001788139,0.,              179P    368
-15.0000002235174,13.3500001788139,4.00000005960464,                 179P    369
-15.0000002235174,13.3500001788139,0.,-16.3500002235174,             179P    370
13.3500001788139,4.00000005960464,-16.3500002235174,                 179P    371
12.0000001788139,0.,-16.3500002235174,12.0000001788139,              179P    372
4.00000005960464,-16.3500002235174,10.6500001788139,0.,              179P    373
-16.3500002235174,10.6500001788139,4.00000005960464,                 179P    374
-16.3500002235174,10.6500001788139,0.,-15.0000002235174,             179P    375
10.6500001788139,4.00000005960464,-15.0000002235174,0.,              179P    376
2.96296300711455,-3.14159265358979,3.14159265358979;                 179P    377
128,1,1,1,1,0,0,1,0,0,0.649000009685755,0.649000009685755,           181P    378
1.20100001788139,1.20100001788139,0.745241387494388,                 181P    379
0.745241387494388,2.25435378701348,2.25435378701348,1.,1.,1.,1.,     181P    380
6.49000009685755,4.00000005960464,-7.45241387494388,                 181P    381
12.0100001788139,4.00000005960464,-7.45241387494388,                 181P    382
6.49000009685755,4.00000005960464,-22.5435378701348,                 181P    383
12.0100001788139,4.00000005960464,-22.5435378701348,                 181P    384
0.649000009685755,1.20100001788139,0.745241387494388,                181P    385
2.25435378701348;                                                    181P    386
128,1,1,1,1,0,0,1,0,0,-0.001,-0.001,0.701000010430813,               183P    387
0.701000010430813,0.745241387494388,0.745241387494388,               183P    388
2.25435378701348,2.25435378701348,1.,1.,1.,1.,6.50000009685755,      183P    389
11.0100001639128,-7.45241387494388,6.50000009685755,                 183P    390
3.99000005960464,-7.45241387494388,6.50000009685755,                 183P    391
11.0100001639128,-22.5435378701348,6.50000009685755,                 183P    392
3.99000005960464,-22.5435378701348,-0.001,0.701000010430813,         183P    393
0.745241387494388,2.25435378701348;                                  183P    394
128,1,4,1,2,0,0,0,0,0,0.,0.,1.08686151235007,1.08686151235007,       185P    395
-0.957693930947288,-0.957693930947288,-0.957693930947288,            185P    396
0.000187448423203285,0.000187448423203285,0.958068827793695,         185P    397
0.958068827793695,0.958068827793695,1.,1.,0.887483592466129,         185P    398
0.887483592466129,1.,1.,0.887483592466129,0.887483592466129,1.,      185P    399
1.,13.7262229197749,3.26058458563672,-12.5463997432415,              185P    400
13.7262229197749,0.,-12.5463997432415,15.0002921771237,              185P    401
3.26058458563672,-13.4427670790302,15.0002921771237,0.,              185P    402
-13.4427670790302,15.0000001708121,3.26058458563672,                 185P    403
-15.0005625687921,15.0000001708121,0.,-15.0005625687921,             185P    404
14.9997081645004,3.26058458563672,-16.558358058554,                  185P    405
14.9997081645004,0.,-16.558358058554,13.7253029514058,               185P    406
3.26058458563672,-17.4542476868161,13.7253029514058,0.,              185P    407
-17.4542476868161,0.,1.08686151235007,-0.957693930947288,            185P    408
0.958068827793695;                                                   185P    409
128,1,1,1,1,0,0,1,0,0,-0.001,-0.001,0.301000004470348,               187P    410
0.301000004470348,-0.001,-0.001,1.501,1.501,1.,1.,1.,1.,-0.01,       187P    411
-0.01,-5.00000007450581,3.01000004470348,-0.01,                      187P    412
-5.00000007450581,-0.01,15.01,-5.00000007450581,                     187P    413
3.01000004470348,15.01,-5.00000007450581,-0.001,                     187P    414
0.301000004470348,-0.001,1.501;                                      187P    415
128,1,1,1,1,0,0,1,0,0,-0.001,-0.001,2.00099999254942,                189P    416
2.00099999254942,-0.001,-0.001,1.501,1.501,1.,1.,1.,1.,0.,-0.01,     189P    417
-25.01,0.,-0.01,-4.99000007450581,0.,15.01,-25.01,0.,15.01,          189P    418
-4.99000007450581,-0.001,2.00099999254942,-0.001,1.501;              189P    419
128,1,1,1,1,0,0,1,0,0,-0.001,-0.001,0.300145161382799,               191P    420
0.300145161382799,-0.001,-0.001,1.501,1.501,1.,1.,1.,1.,             191P    421
3.00145161382799,-0.01,-25.,-0.01,-0.01,-25.,3.00145161382799,       191P    422
15.01,-25.,-0.01,15.01,-25.,-0.001,0.300145161382799,-0.001,         191P    423
1.501;                                                               191P    424
128,1,4,1,2,0,0,0,0,0,3.91313848764992,3.91313848764992,             193P    425
4.99999992549419,4.99999992549419,-0.957693930947288,                193P    426
-0.957693930947288,-0.957693930947288,0.000187448423203285,          193P    427
0.000187448423203285,0.958068827793695,0.958068827793695,            193P    428
0.958068827793695,1.,1.,0.887483592466129,0.887483592466129,1.,      193P    429
1.,0.887483592466129,0.887483592466129,1.,1.,13.7262229197749,       193P    430
15.,-12.5463997432415,13.7262229197749,11.7394156378807,             193P    431
-12.5463997432415,15.0002921771237,15.,-13.4427670790302,            193P    432
15.0002921771237,11.7394156378807,-13.4427670790302,                 193P    433
15.0000001708121,15.,-15.0005625687921,15.0000001708121,             193P    434
11.7394156378807,-15.0005625687921,14.9997081645004,15.,             193P    435
-16.558358058554,14.9997081645004,11.7394156378807,                  193P    436
-16.558358058554,13.7253029514058,15.,-17.4542476868161,             193P    437
13.7253029514058,11.7394156378807,-17.4542476868161,                 193P    438
3.91313848764992,4.99999992549419,-0.957693930947288,                193P    439
0.958068827793695;                                                   193P    440
128,1,1,1,1,0,0,1,0,0,-0.001,-0.001,1.31248772440309,                195P    441
1.31248772440309,-0.001,-0.001,1.501,1.501,1.,1.,1.,1.,              195P    442
2.99182137655777,-0.01,-4.99424599878835,13.7344015879206,-0.01,     195P    443
-12.552153818959,2.99182137655777,15.01,-4.99424599878835,           195P    444
13.7344015879206,15.01,-12.552153818959,-0.001,1.31248772440309,     195P    445
-0.001,1.501;                                                        195P    446
128,1,1,1,1,0,0,1,0,0,-0.751000011175871,-0.751000011175871,         197P    447
0.7510292065365,0.7510292065365,-1.00099999627471,                   197P    448
-1.00099999627471,1.00099999627471,1.00099999627471,1.,1.,1.,1.,     197P    449
-0.01,15.,-4.99000007450581,15.0102921771237,15.,                    197P    450
-4.99000007450581,-0.01,15.,-25.01,15.0102921771237,15.,-25.01,      197P    451
-0.751000011175871,0.7510292065365,-1.00099999627471,                197P    452
1.00099999627471;                                                    197P    453
128,1,1,1,1,0,0,1,0,0,-0.751000011175871,-0.751000011175871,         199P    454
0.7510292065365,0.7510292065365,-1.00099999627471,                   199P    455
-1.00099999627471,1.00099999627471,1.00099999627471,1.,1.,1.,1.,     199P    456
15.0102921771237,0.,-4.99000007450581,-0.01,0.,                      199P    457
-4.99000007450581,15.0102921771237,0.,-25.01,-0.01,0.,-25.01,        199P    458
-0.751000011175871,0.7510292065365,-1.00099999627471,                199P    459
1.00099999627471;                                                    199P    460
502,32,13.7253029514058,11.7394156378807,-17.4542476868161,          201P    461
12.0000001788139,11.0000001639128,-18.6671122009398,                 201P    462
13.7262229197749,11.7398099100389,-12.5463997432415,                 201P    463
12.0000001788139,11.0000001639128,-11.3319212756323,                 201P    464
12.0000001788139,11.0000001639128,-13.6500002235174,                 201P    465
12.0000001788139,11.0000001639128,-16.3500002235174,                 201P    466
13.7262229197749,3.26019031347852,-12.5463997432415,                 201P    467
12.0000001788139,4.00000005960464,-11.3319212756323,                 201P    468
13.7253029514058,3.26058458563671,-17.4542476868161,                 201P    469
12.0000001788139,4.00000005960464,-18.6671122009398,                 201P    470
12.0000001788139,4.00000005960464,-16.3500002235174,                 201P    471
12.0000001788139,4.00000005960464,-13.6500002235174,                 201P    472
10.6500001788139,15.,-15.0000002235174,10.6500001788139,             201P    473
11.0000001639128,-15.0000002235174,6.50000009685755,                 201P    474
11.0000001639128,-7.46241387494388,6.50000009685755,                 201P    475
11.0000001639128,-22.5335378701348,6.50000009685755,                 201P    476
4.00000005960464,-22.5335378701348,13.7253029514058,0.,              201P    477
-17.4542476868161,2.99145161382799,0.,-25.,2.99145161382799,15.,     201P    478
-25.,13.7253029514058,15.,-17.4542476868161,10.6500001788139,        201P    479
4.00000005960464,-15.0000002235174,10.6500001788139,0.,              201P    480
-15.0000002235174,6.50000009685755,4.00000005960464,                 201P    481
-7.46241387494388,13.7262229197749,0.,-12.5463997432415,             201P    482
3.00000004470348,0.,-5.00000007450581,0.,0.,-5.00000007450581,       201P    483
3.00000004470348,15.,-5.00000007450581,0.,15.,-5.00000007450581,     201P    484
0.,0.,-25.,0.,15.,-25.,13.7262229197749,15.,-12.5463997432415;       201P    485
504,48,73,201,1,201,2,75,201,3,201,1,77,201,4,201,3,79,201,5,        203P    486
201,4,81,201,6,201,5,83,201,2,201,6,85,201,7,201,8,87,201,9,201,     203P    487
7,89,201,10,201,9,91,201,11,201,10,93,201,12,201,11,95,201,8,        203P    488
201,12,97,201,13,201,13,99,201,13,201,14,101,201,14,201,6,103,       203P    489
201,5,201,14,105,201,15,201,4,107,201,15,201,16,109,201,2,201,       203P    490
16,111,201,16,201,17,113,201,17,201,10,115,201,18,201,9,117,201,     203P    491
19,201,18,119,201,19,201,20,121,201,21,201,20,123,201,1,201,21,      203P    492
125,201,11,201,22,127,201,22,201,23,129,201,23,201,23,131,201,       203P    493
22,201,12,133,201,24,201,17,135,201,8,201,24,137,201,24,201,15,      203P    494
139,201,25,201,7,141,201,25,201,18,143,201,26,201,27,145,201,26,     203P    495
201,28,147,201,29,201,28,149,201,27,201,29,151,201,27,201,30,        203P    496
153,201,31,201,29,155,201,30,201,31,157,201,30,201,19,159,201,       203P    497
20,201,31,161,201,32,201,21,163,201,3,201,32,165,201,28,201,32,      203P    498
167,201,26,201,25;                                                   203P    499
406,1,5HBody1;                                                       205P    500
314,62.7450980392157,62.7450980392157,62.7450980392157,13HSteel      207P    501
- Satin;                                                             207P    502
S      1G      2D    208P    502                                        T      1
