                                                                        S      1
,,14Hpushrod eye v1,14Hpushrod eye v1,7Hunknown,7Hunknown,32,38,7,99,15,G      1
,1.,2,2HMM,1,0.08,15H20170311.094004,0.01,10000.,7Hunknown,7Hunknown,11,G      2
0,;                                                                     G      3
     186       1                                                00000000D      1
     186            -131       1       0                               0D      2
     514       2                                                00010000D      3
     514                       1       1                               0D      4
     510       3                                                00010000D      5
     510            -131       1       1                               0D      6
     510       4                                                00010000D      7
     510            -131       1       1                               0D      8
     510       5                                                00010000D      9
     510            -131       1       1                               0D     10
     510       6                                                00010000D     11
     510            -131       1       1                               0D     12
     510       7                                                00010000D     13
     510            -131       1       1                               0D     14
     510       8                                                00010000D     15
     510            -131       1       1                               0D     16
     510       9                                                00010000D     17
     510            -131       1       1                               0D     18
     510      10                                                00010000D     19
     510            -131       1       1                               0D     20
     510      11                                                00010000D     21
     510            -131       1       1                               0D     22
     510      12                                                00010000D     23
     510            -131       1       1                               0D     24
     510      13                                                00010000D     25
     510            -131       1       1                               0D     26
     508      14                                                00010000D     27
     508                       1       1                               0D     28
     508      15                                                00010000D     29
     508                       1       1                               0D     30
     508      16                                                00010000D     31
     508                       1       1                               0D     32
     508      17                                                00010000D     33
     508                       2       1                               0D     34
     508      19                                                00010000D     35
     508                       1       1                               0D     36
     508      20                                                00010000D     37
     508                       1       1                               0D     38
     508      21                                                00010000D     39
     508                       1       1                               0D     40
     508      22                                                00010000D     41
     508                       1       1                               0D     42
     508      23                                                00010000D     43
     508                       2       1                               0D     44
     508      25                                                00010000D     45
     508                       2       1                               0D     46
     508      27                                                00010000D     47
     508                       1       1                               0D     48
     508      28                                                00010000D     49
     508                       1       1                               0D     50
     508      29                                                00010000D     51
     508                       1       1                               0D     52
     508      30                                                00010000D     53
     508                       1       1                               0D     54
     126      31                                                00010000D     55
     126       0               4       0                               0D     56
     126      35                                                00010000D     57
     126       0               3       0                               0D     58
     126      38                                                00010000D     59
     126       0               4       0                               0D     60
     126      42                                                00010000D     61
     126       0              10       0                               0D     62
     126      52                                                00010000D     63
     126       0               6       0                               0D     64
     126      58                                                00010000D     65
     126       0              15       0                               0D     66
     126      73                                                00010000D     67
     126       0               9       0                               0D     68
     126      82                                                00010000D     69
     126       0               5       0                               0D     70
     126      87                                                00010000D     71
     126       0               3       0                               0D     72
     126      90                                                00010000D     73
     126       0               4       0                               0D     74
     126      94                                                00010000D     75
     126       0               4       0                               0D     76
     126      98                                                00010000D     77
     126       0               4       0                               0D     78
     126     102                                                00010000D     79
     126       0               3       0                               0D     80
     126     105                                                00010000D     81
     126       0               7       0                               0D     82
     126     112                                                00010000D     83
     126       0               9       0                               0D     84
     126     121                                                00010000D     85
     126       0              13       0                               0D     86
     126     134                                                00010000D     87
     126       0              12       0                               0D     88
     126     146                                                00010000D     89
     126       0               4       0                               0D     90
     126     150                                                00010000D     91
     126       0               4       0                               0D     92
     126     154                                                00010000D     93
     126       0               3       0                               0D     94
     126     157                                                00010000D     95
     126       0               3       0                               0D     96
     126     160                                                00010000D     97
     126       0              13       0                               0D     98
     126     173                                                00010000D     99
     126       0               3       0                               0D    100
     126     176                                                00010000D    101
     126       0              12       0                               0D    102
     128     188                                                00010000D    103
     128       0    -131       7       0                               0D    104
     128     195                                                00010000D    105
     128       0    -131       8       0                               0D    106
     128     203                                                00010000D    107
     128       0    -131       7       0                               0D    108
     128     210                                                00010000D    109
     128       0    -131       5       0                               0D    110
     128     215                                                00010000D    111
     128       0    -131       7       0                               0D    112
     128     222                                                00010000D    113
     128       0    -131      17       0                               0D    114
     128     239                                                00010000D    115
     128       0    -131      21       0                               0D    116
     128     260                                                00010000D    117
     128       0    -131       7       0                               0D    118
     128     267                                                00010000D    119
     128       0    -131      21       0                               0D    120
     128     288                                                00010000D    121
     128       0    -131      18       0                               0D    122
     128     306                                                00010000D    123
     128       0    -131       7       0                               0D    124
     502     313                                                00010000D    125
     502                      12       1                               0D    126
     504     325                                                00010001D    127
     504                       7       1                               0D    128
     406     332                                                00000000D    129
     406                       1      15                               0D    130
     314     333                                                00000200D    131
     314                       2       0                               0D    132
186,3,1,0,0,1,129;                                                     1P      1
514,11,5,1,7,1,9,1,11,1,13,1,15,1,17,1,19,1,21,1,23,1,25,1;            3P      2
510,103,2,1,27,29;                                                     5P      3
510,105,1,1,31;                                                        7P      4
510,107,1,1,33;                                                        9P      5
510,109,1,1,35;                                                       11P      6
510,111,2,1,37,39;                                                    13P      7
510,113,1,1,41;                                                       15P      8
510,115,1,1,43;                                                       17P      9
510,117,1,1,45;                                                       19P     10
510,119,1,1,47;                                                       21P     11
510,121,1,1,49;                                                       23P     12
510,123,2,1,51,53;                                                    25P     13
508,4,0,127,1,1,0,0,127,2,1,0,0,127,3,1,0,0,127,4,1,0;                27P     14
508,2,0,127,5,1,0,0,127,6,1,0;                                        29P     15
508,4,0,127,7,0,0,0,127,8,0,0,0,127,9,0,0,0,127,10,0,0;               31P     16
508,5,0,127,8,1,0,0,127,11,1,0,0,127,3,0,0,0,127,12,0,0,0,127,        33P     17
13,0,0;                                                               33P     18
508,2,0,127,14,0,0,0,127,15,0,0;                                      35P     19
508,2,0,127,16,1,0,0,127,9,1,0;                                       37P     20
508,1,0,127,17,1,0;                                                   39P     21
508,4,0,127,7,1,0,0,127,18,1,0,0,127,4,0,0,0,127,11,0,0;              41P     22
508,6,0,127,14,1,0,0,127,19,1,0,0,127,5,0,0,0,127,6,0,0,0,127,        43P     23
19,0,0,0,127,15,1,0;                                                  43P     24
508,5,0,127,10,1,0,0,127,20,0,0,0,127,21,1,0,0,127,1,0,0,0,127,       45P     25
18,0,0;                                                               45P     26
508,4,0,127,13,1,0,0,127,22,1,0,0,127,20,1,0,0,127,16,0,0;            47P     27
508,4,0,127,17,0,0,0,127,23,1,0,0,127,24,1,0,0,127,23,0,0;            49P     28
508,4,0,127,22,0,0,0,127,12,1,0,0,127,2,0,0,0,127,21,0,0;             51P     29
508,1,0,127,24,0,0;                                                   53P     30
126,1,1,0,0,1,0,-0.10000000372529,-0.10000000372529,0.15,0.15,        55P     31
1.,1.,14.5000001862645,2.50000003725291,2.5000000372529,              55P     32
14.5000001862645,0.,2.5000000372529,-0.10000000372529,0.15,0.,        55P     33
0.,0.;                                                                55P     34
126,1,1,0,0,1,0,-0.500000007450581,-0.500000007450581,0.,0.,1.,       57P     35
1.,14.5000001862645,0.,2.5000000372529,14.5000001862645,0.,           57P     36
-2.5000000372529,-0.500000007450581,0.,0.,0.,0.;                      57P     37
126,1,1,0,0,1,0,-0.15,-0.15,0.10000000372529,0.10000000372529,        59P     38
1.,1.,14.5000001862645,0.,-2.5000000372529,14.5000001862645,          59P     39
2.50000003725291,-2.5000000372529,-0.15,0.10000000372529,0.,0.,       59P     40
0.;                                                                   59P     41
126,4,2,0,0,0,0,8.88178406465236D-16,8.88178406465236D-16,            61P     42
8.88178406465236D-16,1.5707963267949,1.5707963267949,                 61P     43
3.14159265358979,3.14159265358979,3.14159265358979,1.,                61P     44
0.707106781186547,1.,0.707106781186548,1.,14.5000001862645,           61P     45
2.50000003725291,-2.5000000372529,14.5000001862645,                   61P     46
5.00000007450581,-2.5000000372529,14.5000001862645,                   61P     47
5.00000007450581,-1.53080852174502D-16,14.5000001862645,              61P     48
5.00000007450581,2.5000000372529,14.5000001862645,                    61P     49
2.50000003725291,2.5000000372529,8.88178406465236D-16,                61P     50
3.14159265358979,0.,0.,0.;                                            61P     51
126,2,2,0,0,0,0,-3.95593263519046,-3.95593263519046,                  63P     52
-3.95593263519046,-3.14159265358979,-3.14159265358979,                63P     53
-3.14159265358979,1.,0.918245216790196,1.,14.5000001862645,1.5,       63P     54
0.943729264934702,14.5000001862645,1.90700279862899,1.375,            63P     55
14.5000001862645,2.5000000372529,1.375,-3.95593263519046,             63P     56
-3.14159265358979,0.,0.,0.;                                           63P     57
126,8,2,0,0,0,0,-3.14159265358979,-3.14159265358979,                  65P     58
-3.14159265358979,-1.77438132219506,-1.77438132219506,                65P     59
-0.407169990800333,-0.407169990800333,0.960041340594397,              65P     60
0.960041340594397,2.32725267198913,2.32725267198913,                  65P     61
2.32725267198913,1.,0.775300451688104,1.,0.775300451688104,1.,        65P     62
0.775300451688103,1.,0.775300451688104,1.,14.5000001862645,           65P     63
2.5000000372529,1.375,14.5000001862645,3.62013329669062,1.375,        65P     64
14.5000001862645,3.84660360976301,0.277999673566388,                  65P     65
14.5000001862645,4.0730739228354,-0.819000652867225,                  65P     66
14.5000001862645,3.04451691518911,-1.26258717308652,                  65P     67
14.5000001862645,2.01595990754282,-1.70617369330581,                  65P     68
14.5000001862645,1.37357903102302,-0.78854341460953,                  65P     69
14.5000001862645,0.731198154503224,0.129086864086753,                 65P     70
14.5000001862645,1.5,0.943729264934702,-3.14159265358979,             65P     71
2.32725267198913,0.,0.,0.;                                            65P     72
126,4,2,0,0,0,0,1.5707963267949,1.5707963267949,1.5707963267949,      67P     73
3.14159265358979,3.14159265358979,4.71238898038469,                   67P     74
4.71238898038469,4.71238898038469,1.,0.707106781186549,1.,            67P     75
0.707106781186549,1.,3.94464221419084,2.50000003725291,               67P     76
-2.5000000372529,6.00000008940697,5.00000007450581,                   67P     77
-2.5000000372529,6.00000008940697,5.00000007450581,                   67P     78
8.04061336819766D-16,6.00000008940697,5.0000000745058,                67P     79
2.5000000372529,3.94464221419084,2.5000000372529,                     67P     80
2.5000000372529,1.5707963267949,4.71238898038469,0.,0.,0.;            67P     81
126,1,1,0,0,1,0,-0.226550285686831,-0.226550285686831,                69P     82
-0.0970929775132156,-0.0970929775132156,1.,1.,3.12249904572806,       69P     83
1.5,-2.5000000372529,3.94464221419084,2.50000003725291,               69P     84
-2.5000000372529,-0.226550285686831,-0.0970929775132156,0.,0.,        69P     85
0.;                                                                   69P     86
126,1,1,0,0,1,0,0.,0.,0.500000007450581,0.500000007450581,1.,1.,      71P     87
3.12249904572806,1.5,2.5000000372529,3.12249904572806,1.5,            71P     88
-2.5000000372529,0.,0.500000007450581,0.,0.,0.;                       71P     89
126,1,1,0,0,1,0,0.394860967930744,0.394860967930744,                  73P     90
0.524318276104359,0.524318276104359,1.,1.,3.94464221419084,           73P     91
2.5000000372529,2.5000000372529,3.12249904572806,1.5,                 73P     92
2.5000000372529,0.394860967930744,0.524318276104359,0.,0.,0.;         73P     93
126,1,1,0,0,1,0,-0.855535797207367,-0.855535797207367,0.2,0.2,        75P     94
1.,1.,3.94464221419084,2.50000003725291,-2.5000000372529,             75P     95
14.5000001862645,2.50000003725291,-2.5000000372529,                   75P     96
-0.855535797207367,0.2,0.,0.,0.;                                      75P     97
126,1,1,0,0,1,0,1.56224992319926,1.56224992319926,                    77P     98
2.7000000372529,2.7000000372529,1.,1.,3.12249904572806,0.,            77P     99
-2.5000000372529,14.5000001862645,0.,-2.5000000372529,                77P    100
1.56224992319926,2.7000000372529,0.,0.,0.;                            77P    101
126,1,1,0,0,1,0,-0.15,-0.15,0.,0.,1.,1.,3.12249904572806,1.5,         79P    102
-2.5000000372529,3.12249904572806,0.,-2.5000000372529,-0.15,0.,       79P    103
0.,0.,0.;                                                             79P    104
126,4,2,0,0,0,0,0.,0.,0.,1.5707963267949,1.5707963267949,             81P    105
3.14159265358979,3.14159265358979,3.14159265358979,1.,                81P    106
0.707106781186548,1.,0.707106781186548,1.,6.00000018626451,           81P    107
2.5000000372529,-1.375,6.00000018626451,1.1250000372529,-1.375,       81P    108
6.00000018626451,1.1250000372529,-8.41944674413805D-17,               81P    109
6.00000018626451,1.1250000372529,1.375,6.00000018626451,              81P    110
2.5000000372529,1.375,0.,3.14159265358979,0.,0.,0.;                   81P    111
126,4,2,0,0,0,0,3.14159265358979,3.14159265358979,                    83P    112
3.14159265358979,4.71238898038469,4.71238898038469,                   83P    113
6.28318530717959,6.28318530717959,6.28318530717959,1.,                83P    114
0.707106781186548,1.,0.707106781186547,1.,6.00000018626451,           83P    115
2.5000000372529,1.375,6.00000018626451,3.8750000372529,1.375,         83P    116
6.00000018626451,3.8750000372529,2.52583402324142D-16,                83P    117
6.00000018626451,3.8750000372529,-1.375,6.00000018626451,             83P    118
2.5000000372529,-1.375,3.14159265358979,6.28318530717959,0.,0.,       83P    119
0.;                                                                   83P    120
126,8,2,0,0,0,0,0.675131532937032,0.675131532937032,                  85P    121
0.675131532937032,1.90836209326341,1.90836209326341,                  85P    122
3.14159265358979,3.14159265358979,4.37482321391617,                   85P    123
4.37482321391617,5.60805377424255,5.60805377424255,                   85P    124
5.60805377424255,1.,0.815840432116232,1.,0.815840432116231,1.,        85P    125
0.815840432116233,1.,0.815840432116232,1.,3.12249904572806,1.5,       85P    126
-2.5000000372529,1.35047024931397,1.5,-4.71326329459497,              85P    127
-1.32476490514534,1.5,-3.77425468442876,-4.00000005960464,1.5,        85P    128
-2.83524607426255,-4.00000005960464,1.5,-4.89858726958405D-16,        85P    129
-4.00000005960464,1.5,2.83524607426254,-1.32476490514534,1.5,         85P    130
3.77425468442876,1.35047024931396,1.5,4.71326329459497,               85P    131
3.12249904572806,1.5,2.5000000372529,0.675131532937032,               85P    132
5.60805377424255,0.,0.,0.;                                            85P    133
126,8,2,0,1,0,0,-3.14159265358979,-3.14159265358979,                  87P    134
-3.14159265358979,-1.5707963267949,-1.5707963267949,0.,0.,            87P    135
1.5707963267949,1.5707963267949,3.14159265358979,                     87P    136
3.14159265358979,3.14159265358979,1.,0.707106781186548,1.,            87P    137
0.707106781186548,1.,0.707106781186548,1.,0.707106781186548,1.,       87P    138
-1.00000001490116,1.5,-1.22464681739601D-16,-1.00000001490116,        87P    139
1.5,-1.00000001490116,6.12323408698006D-17,1.5,                       87P    140
-1.00000001490116,1.00000001490116,1.5,-1.00000001490116,             87P    141
1.00000001490116,1.5,0.,1.00000001490116,1.5,1.00000001490116,        87P    142
6.12323408698006D-17,1.5,1.00000001490116,-1.00000001490116,1.5,      87P    143
1.00000001490116,-1.00000001490116,1.5,1.22464681739601D-16,          87P    144
-3.14159265358979,3.14159265358979,0.,0.,0.;                          87P    145
126,1,1,0,0,1,0,-0.855535797207367,-0.855535797207367,0.2,0.2,        89P    146
1.,1.,3.94464221419084,2.50000003725291,2.5000000372529,              89P    147
14.5000001862645,2.50000003725291,2.5000000372529,                    89P    148
-0.855535797207367,0.2,0.,0.,0.;                                      89P    149
126,1,1,0,0,1,0,-4.72727272727273,-4.72727272727273,                  91P    150
1.45454545454545,1.45454545454545,1.,1.,6.00000018626452,             91P    151
2.5000000372529,1.375,14.5000001862645,2.5000000372529,1.375,         91P    152
-4.72727272727273,1.45454545454545,0.,0.,0.;                          91P    153
126,1,1,0,0,1,0,0.,0.,0.15,0.15,1.,1.,3.12249904572806,0.,            93P    154
2.5000000372529,3.12249904572806,1.5,2.5000000372529,0.,0.15,0.,      93P    155
0.,0.;                                                                93P    156
126,1,1,0,0,1,0,-0.937750114053646,-0.937750114053646,0.2,0.2,        95P    157
1.,1.,3.12249904572806,0.,2.5000000372529,14.5000001862645,0.,        95P    158
2.5000000372529,-0.937750114053646,0.2,0.,0.,0.;                      95P    159
126,8,2,0,0,0,0,-5.60805377424255,-5.60805377424255,                  97P    160
-5.60805377424255,-4.37482321391617,-4.37482321391617,                97P    161
-3.14159265358979,-3.14159265358979,-1.90836209326341,                97P    162
-1.90836209326341,-0.675131532937032,-0.675131532937032,              97P    163
-0.675131532937032,1.,0.815840432116232,1.,0.815840432116233,1.,      97P    164
0.815840432116231,1.,0.815840432116232,1.,3.12249904572806,0.,        97P    165
-2.5000000372529,1.35047024931396,0.,-4.71326329459497,               97P    166
-1.32476490514534,0.,-3.77425468442876,-4.00000005960464,0.,          97P    167
-2.83524607426254,-4.00000005960464,0.,4.89858726958405D-16,          97P    168
-4.00000005960464,0.,2.83524607426255,-1.32476490514534,0.,           97P    169
3.77425468442876,1.35047024931397,0.,4.71326329459497,                97P    170
3.12249904572806,0.,2.5000000372529,-5.60805377424255,                97P    171
-0.675131532937032,0.,0.,0.;                                          97P    172
126,1,1,0,0,1,0,-1.49999997764826,-1.49999997764826,0.,0.,1.,1.,      99P    173
-1.00000001490116,1.5,0.,-1.00000001490116,0.,0.,                     99P    174
-1.49999997764826,0.,0.,0.,0.;                                        99P    175
126,8,2,0,1,0,0,-3.14159265358979,-3.14159265358979,                 101P    176
-3.14159265358979,-1.5707963267949,-1.5707963267949,0.,0.,           101P    177
1.5707963267949,1.5707963267949,3.14159265358979,                    101P    178
3.14159265358979,3.14159265358979,1.,0.707106781186548,1.,           101P    179
0.707106781186548,1.,0.707106781186548,1.,0.707106781186548,1.,      101P    180
-1.00000001490116,0.,-1.22464681739601D-16,-1.00000001490116,0.,     101P    181
-1.00000001490116,6.12323408698006D-17,0.,-1.00000001490116,         101P    182
1.00000001490116,0.,-1.00000001490116,1.00000001490116,0.,0.,        101P    183
1.00000001490116,0.,1.00000001490116,6.12323408698006D-17,0.,        101P    184
1.00000001490116,-1.00000001490116,0.,1.00000001490116,              101P    185
-1.00000001490116,0.,1.22464681739601D-16,-3.14159265358979,         101P    186
3.14159265358979,0.,0.,0.;                                           101P    187
128,1,1,1,1,0,0,1,0,0,-0.001,-0.001,0.501000007450581,               103P    188
0.501000007450581,-0.351000007450581,-0.351000007450581,0.151,       103P    189
0.151,1.,1.,1.,1.,14.5000001862645,5.01000007450581,                 103P    190
-2.5100000372529,14.5000001862645,5.01000007450581,                  103P    191
2.5100000372529,14.5000001862645,-0.01,-2.5100000372529,             103P    192
14.5000001862645,-0.01,2.5100000372529,-0.001,0.501000007450581,     103P    193
-0.351000007450581,0.151;                                            103P    194
128,1,1,1,1,0,0,1,0,0,-0.00100000000000003,-0.00100000000000003,     105P    195
0.454100571373661,0.454100571373661,-0.001,-0.001,                   105P    196
0.501000007450581,0.501000007450581,1.,1.,1.,1.,                     105P    197
3.11614835622229,1.49227544546259,2.5100000372529,                   105P    198
6.00635077891273,5.00772462904321,2.5100000372529,                   105P    199
3.11614835622229,1.49227544546259,-2.5100000372529,                  105P    200
6.00635077891273,5.00772462904321,-2.5100000372529,                  105P    201
-0.00100000000000003,0.454100571373661,-0.001,0.501000007450581;     105P    202
128,1,1,1,1,0,0,1,0,0,-0.001,-0.001,1.13875011405365,                107P    203
1.13875011405365,-0.10100000372529,-0.10100000372529,0.151,          107P    204
0.151,1.,1.,1.,1.,3.11249904572806,2.51000003725291,                 107P    205
-2.5000000372529,14.5100001862645,2.51000003725291,                  107P    206
-2.5000000372529,3.11249904572806,-0.01,-2.5000000372529,            107P    207
14.5100001862645,-0.01,-2.5000000372529,-0.001,1.13875011405365,     107P    208
-0.10100000372529,0.151;                                             107P    209
128,1,1,1,1,0,0,1,0,0,-0.1385,-0.1385,0.1385,0.1385,-0.1385,         109P    210
-0.1385,0.1385,0.1385,1.,1.,1.,1.,6.00000018626451,                  109P    211
1.1150000372529,1.385,6.00000018626451,1.1150000372529,-1.385,       109P    212
6.00000018626451,3.8850000372529,1.385,6.00000018626451,             109P    213
3.8850000372529,-1.385,-0.1385,0.1385,-0.1385,0.1385;                109P    214
128,1,1,1,1,0,0,1,0,0,-0.401000005960464,-0.401000005960464,         111P    215
0.313249904572806,0.313249904572806,-0.472326329459497,              111P    216
-0.472326329459497,0.472326329459497,0.472326329459497,1.,1.,1.,     111P    217
1.,-4.01000005960464,1.5,4.72326329459497,3.13249904572806,1.5,      111P    218
4.72326329459497,-4.01000005960464,1.5,-4.72326329459497,            111P    219
3.13249904572806,1.5,-4.72326329459497,-0.401000005960464,           111P    220
0.313249904572806,-0.472326329459497,0.472326329459497;              111P    221
128,1,4,1,2,0,0,0,0,0,-0.799999988079071,-0.799999988079071,         113P    222
3.42214313783556,3.42214313783556,-3.14159265358979,                 113P    223
-3.14159265358979,-3.14159265358979,-1.5707963267949,                113P    224
-1.5707963267949,-8.88178406465236D-16,-8.88178406465236D-16,        113P    225
-8.88178406465236D-16,1.,1.,0.707106781186548,0.707106781186548,     113P    226
1.,1.,0.707106781186548,0.707106781186548,1.,1.,                     113P    227
3.94464221419084,2.5000000372529,2.5000000372529,                    113P    228
14.5000001862645,2.5000000372529,2.5000000372529,                    113P    229
3.94464221419084,5.00000007450581,2.5000000372529,                   113P    230
14.5000001862645,5.00000007450581,2.5000000372529,                   113P    231
3.94464221419084,5.00000007450581,0.,14.5000001862645,               113P    232
5.00000007450581,0.,3.94464221419084,5.00000007450581,               113P    233
-2.5000000372529,14.5000001862645,5.00000007450581,                  113P    234
-2.5000000372529,3.94464221419084,2.5000000372529,                   113P    235
-2.5000000372529,14.5000001862645,2.5000000372529,                   113P    236
-2.5000000372529,-0.799999988079071,3.42214313783556,                113P    237
-3.14159265358979,-8.88178406465236D-16;                             113P    238
128,1,8,1,2,0,1,0,0,1,-1.45454545454545,-1.45454545454545,           115P    239
4.72727272727273,4.72727272727273,-3.14159265358979,                 115P    240
-3.14159265358979,-3.14159265358979,-1.5707963267949,                115P    241
-1.5707963267949,0.,0.,1.5707963267949,1.5707963267949,              115P    242
3.14159265358979,3.14159265358979,3.14159265358979,1.,1.,            115P    243
0.707106781186548,0.707106781186548,1.,1.,0.707106781186548,         115P    244
0.707106781186548,1.,1.,0.707106781186548,0.707106781186548,1.,      115P    245
1.,0.707106781186548,0.707106781186548,1.,1.,14.5000001862645,       115P    246
2.5000000372529,1.375,6.00000018626452,2.5000000372529,1.375,        115P    247
14.5000001862645,3.8750000372529,1.375,6.00000018626452,             115P    248
3.8750000372529,1.375,14.5000001862645,3.8750000372529,0.,           115P    249
6.00000018626452,3.8750000372529,0.,14.5000001862645,                115P    250
3.8750000372529,-1.375,6.00000018626452,3.8750000372529,-1.375,      115P    251
14.5000001862645,2.5000000372529,-1.375,6.00000018626452,            115P    252
2.5000000372529,-1.375,14.5000001862645,1.1250000372529,-1.375,      115P    253
6.00000018626452,1.1250000372529,-1.375,14.5000001862645,            115P    254
1.1250000372529,0.,6.00000018626452,1.1250000372529,0.,              115P    255
14.5000001862645,1.1250000372529,1.375,6.00000018626452,             115P    256
1.1250000372529,1.375,14.5000001862645,2.5000000372529,1.375,        115P    257
6.00000018626452,2.5000000372529,1.375,-1.45454545454545,            115P    258
4.72727272727273,-3.14159265358979,3.14159265358979;                 115P    259
128,1,1,1,1,0,0,1,0,0,-0.201,-0.201,0.938750114053646,               117P    260
0.938750114053646,-0.10100000372529,-0.10100000372529,0.151,         117P    261
0.151,1.,1.,1.,1.,14.5100001862645,2.51000003725291,                 117P    262
2.5000000372529,3.11249904572806,2.51000003725291,                   117P    263
2.5000000372529,14.5100001862645,-0.01,2.5000000372529,              117P    264
3.11249904572806,-0.01,2.5000000372529,-0.201,0.938750114053646,     117P    265
-0.10100000372529,0.151;                                             117P    266
128,1,8,1,2,0,0,0,0,0,0.,0.,0.374999994412065,0.374999994412065,     119P    267
0.675131532937032,0.675131532937032,0.675131532937032,               119P    268
1.90836209326341,1.90836209326341,3.14159265358979,                  119P    269
3.14159265358979,4.37482321391617,4.37482321391617,                  119P    270
5.60805377424255,5.60805377424255,5.60805377424255,1.,1.,            119P    271
0.815840432116232,0.815840432116232,1.,1.,0.815840432116232,         119P    272
0.815840432116232,1.,1.,0.815840432116232,0.815840432116232,1.,      119P    273
1.,0.815840432116232,0.815840432116232,1.,1.,3.12249904572806,       119P    274
1.5,-2.5000000372529,3.12249904572806,0.,-2.5000000372529,           119P    275
1.35047024931397,1.5,-4.71326329459497,1.35047024931397,0.,          119P    276
-4.71326329459497,-1.32476490514534,1.5,-3.77425468442876,           119P    277
-1.32476490514534,0.,-3.77425468442876,-4.00000005960464,1.5,        119P    278
-2.83524607426255,-4.00000005960464,0.,-2.83524607426255,            119P    279
-4.00000005960464,1.5,0.,-4.00000005960464,0.,0.,                    119P    280
-4.00000005960464,1.5,2.83524607426255,-4.00000005960464,0.,         119P    281
2.83524607426255,-1.32476490514534,1.5,3.77425468442876,             119P    282
-1.32476490514534,0.,3.77425468442876,1.35047024931397,1.5,          119P    283
4.71326329459497,1.35047024931397,0.,4.71326329459497,               119P    284
3.12249904572806,1.5,2.5000000372529,3.12249904572806,0.,            119P    285
2.5000000372529,0.,0.374999994412065,0.675131532937032,              119P    286
5.60805377424255;                                                    119P    287
128,1,8,1,2,0,1,0,0,1,0.,0.,1.49999997764826,1.49999997764826,       121P    288
-3.14159265358979,-3.14159265358979,-3.14159265358979,               121P    289
-1.5707963267949,-1.5707963267949,0.,0.,1.5707963267949,             121P    290
1.5707963267949,3.14159265358979,3.14159265358979,                   121P    291
3.14159265358979,1.,1.,0.707106781186548,0.707106781186548,1.,       121P    292
1.,0.707106781186548,0.707106781186548,1.,1.,0.707106781186548,      121P    293
0.707106781186548,1.,1.,0.707106781186548,0.707106781186548,1.,      121P    294
1.,-1.00000001490116,0.,0.,-1.00000001490116,1.5,0.,                 121P    295
-1.00000001490116,0.,1.00000001490116,-1.00000001490116,1.5,         121P    296
1.00000001490116,0.,0.,1.00000001490116,0.,1.5,1.00000001490116,     121P    297
1.00000001490116,0.,1.00000001490116,1.00000001490116,1.5,           121P    298
1.00000001490116,1.00000001490116,0.,0.,1.00000001490116,1.5,0.,     121P    299
1.00000001490116,0.,-1.00000001490116,1.00000001490116,1.5,          121P    300
-1.00000001490116,0.,0.,-1.00000001490116,0.,1.5,                    121P    301
-1.00000001490116,-1.00000001490116,0.,-1.00000001490116,            121P    302
-1.00000001490116,1.5,-1.00000001490116,-1.00000001490116,0.,0.,     121P    303
-1.00000001490116,1.5,0.,0.,1.49999997764826,-3.14159265358979,      121P    304
3.14159265358979;                                                    121P    305
128,1,1,1,1,0,0,1,0,0,-0.401000005960464,-0.401000005960464,         123P    306
1.45100001862645,1.45100001862645,-0.472326329459497,                123P    307
-0.472326329459497,0.472326329459497,0.472326329459497,1.,1.,1.,     123P    308
1.,14.5100001862645,0.,4.72326329459497,-4.01000005960464,0.,        123P    309
4.72326329459497,14.5100001862645,0.,-4.72326329459497,              123P    310
-4.01000005960464,0.,-4.72326329459497,-0.401000005960464,           123P    311
1.45100001862645,-0.472326329459497,0.472326329459497;               123P    312
502,16,14.5000001862645,2.50000003725291,2.5000000372529,            125P    313
14.5000001862645,0.,2.5000000372529,14.5000001862645,0.,             125P    314
-2.5000000372529,14.5000001862645,2.50000003725291,                  125P    315
-2.5000000372529,14.5000001862645,1.5,0.943729264934702,             125P    316
14.5000001862645,2.5000000372529,1.375,3.94464221419084,             125P    317
2.50000003725291,-2.5000000372529,3.94464221419084,                  125P    318
2.5000000372529,2.5000000372529,3.12249904572806,1.5,                125P    319
-2.5000000372529,3.12249904572806,1.5,2.5000000372529,               125P    320
3.12249904572806,0.,-2.5000000372529,6.00000018626451,               125P    321
2.5000000372529,-1.375,6.00000018626452,2.5000000372529,1.375,       125P    322
-1.00000001490116,1.5,1.22464681739601D-16,3.12249904572806,0.,      125P    323
2.5000000372529,-1.00000001490116,0.,1.22464681739601D-16;           125P    324
504,24,55,125,1,125,2,57,125,2,125,3,59,125,3,125,4,61,125,4,        127P    325
125,1,63,125,5,125,6,65,125,6,125,5,67,125,7,125,8,69,125,9,125,     127P    326
7,71,125,10,125,9,73,125,8,125,10,75,125,7,125,4,77,125,11,125,      127P    327
3,79,125,9,125,11,81,125,12,125,13,83,125,13,125,12,85,125,9,        127P    328
125,10,87,125,14,125,14,89,125,8,125,1,91,125,13,125,6,93,125,       127P    329
15,125,10,95,125,15,125,2,97,125,11,125,15,99,125,14,125,16,101,     127P    330
125,16,125,16;                                                       127P    331
406,1,5HBody1;                                                       129P    332
314,62.7450980392157,62.7450980392157,62.7450980392157,13HSteel      131P    333
- Satin;                                                             131P    334
S      1G      3D    132P    334                                        T      1
